<?xml version="1.0" encoding="UTF-8" standalone="no"?>
<svg
   xmlns:dc="http://purl.org/dc/elements/1.1/"
   xmlns:cc="http://creativecommons.org/ns#"
   xmlns:rdf="http://www.w3.org/1999/02/22-rdf-syntax-ns#"
   xmlns:svg="http://www.w3.org/2000/svg"
   xmlns="http://www.w3.org/2000/svg"
   xmlns:sodipodi="http://sodipodi.sourceforge.net/DTD/sodipodi-0.dtd"
   xmlns:inkscape="http://www.inkscape.org/namespaces/inkscape"
   width="284.639"
   height="93.64"
   viewBox="0 0 284.639 93.64"
   version="1.1"
   id="svg10"
   sodipodi:docname="stroke13.svg"
   inkscape:version="0.92.5 (2060ec1f9f, 2020-04-08)">
  <metadata
     id="metadata16">
    <rdf:RDF>
      <cc:Work
         rdf:about="">
        <dc:format>image/svg+xml</dc:format>
        <dc:type
           rdf:resource="http://purl.org/dc/dcmitype/StillImage" />
        <dc:title />
      </cc:Work>
    </rdf:RDF>
  </metadata>
  <defs
     id="defs14" />
  <sodipodi:namedview
     pagecolor="#ffffff"
     bordercolor="#666666"
     borderopacity="1"
     objecttolerance="10"
     gridtolerance="10"
     guidetolerance="10"
     inkscape:pageopacity="0"
     inkscape:pageshadow="2"
     inkscape:window-width="1920"
     inkscape:window-height="1034"
     id="namedview12"
     showgrid="false"
     inkscape:zoom="12.560232"
     inkscape:cx="150.38162"
     inkscape:cy="23.844522"
     inkscape:window-x="0"
     inkscape:window-y="0"
     inkscape:window-maximized="1"
     inkscape:current-layer="svg10" />
  <g
     fill-rule="evenodd"
     stroke-width="0.25mm"
     stroke-linecap="round"
     id="g4">
    <path
       d="m 139.756,50.5 3.1,2.8 h 3.8 c 1.73867,-0.128667 2.80867,-0.148667 3.21,-0.06 0.0134,0.003 0.0267,0.0063 0.04,0.01 0.13019,0.03877 0.25009,0.106067 0.351,0.197 0.24067,0.206667 0.47367,0.557667 0.699,1.053 0.0427,0.148803 0.0745,0.300544 0.095,0.454 0.0973,0.736 -0.11767,1.368 -0.645,1.896 -0.612,0.611333 -1.89233,1.269667 -3.841,1.975 -0.0696,0.02521 -0.13926,0.05021 -0.209,0.075 l -3.1,1.2 -0.4,2.5 c -0.2,1.666667 -0.4,3.066667 -0.6,4.2 l -0.4,1.6 h 6.4 c 0.32999,-0.0027 0.66,-0.0043 0.99,-0.005 7.40467,-0.016 11.69967,0.511667 12.885,1.583 0.008,0.0072 0.0168,0.01457 0.025,0.022 0.1001,0.10519 0.18219,0.22614 0.243,0.358 0.35133,0.785333 -0.348,1.735667 -2.098,2.851 -0.21221,0.134881 -0.42726,0.265244 -0.645,0.391 l -2.5,1.4 -5.8,-0.7 c -0.8843,-0.09558 -1.77008,-0.176924 -2.657,-0.244 -2.512,-0.187333 -4.593,-0.206 -6.243,-0.056 -1.53533,0.184 -3.93267,0.636667 -7.192,1.358 -0.28612,0.06347 -0.57212,0.127467 -0.858,0.192 -3.28733,0.740667 -5.29867,1.283667 -6.034,1.629 -0.0754,0.03401 -0.14764,0.07449 -0.216,0.121 -0.22333,0.056 -0.774,-0.06333 -1.652,-0.358 -0.18338,-0.06195 -0.36606,-0.125951 -0.548,-0.192 -1.2,-0.433333 -2.23333,-0.95 -3.1,-1.55 -1.2,-0.866667 -0.9,-1.566667 0.9,-2.1 0.27867,-0.09177 0.56014,-0.17481 0.844,-0.249 0.694,-0.184 1.546,-0.367667 2.556,-0.551 l 4.5,-0.9 -0.3,-1.6 c -0.064,-0.954667 -0.0973,-2.212667 -0.1,-3.774 V 65.8 63.3 h -2.1 c -1.03459,0.0105 -2.06464,-0.138242 -3.054,-0.441 -1.36065,-0.426848 -2.58408,-1.206242 -3.546,-2.259 -0.0865,-0.104323 -0.16598,-0.214227 -0.238,-0.329 -0.36467,-0.590667 -0.33533,-1.097667 0.088,-1.521 0.5,-0.5 1.78333,-0.85 3.85,-1.05 0.39572,-0.03449 0.79079,-0.07616 1.185,-0.125 1.262,-0.158 2.167,-0.364667 2.715,-0.62 0.12367,-0.05561 0.24101,-0.124335 0.35,-0.205 0.18866,-0.152476 0.339,-0.346999 0.439,-0.568 0.274,-0.562667 0.411,-1.423333 0.411,-2.582 0,-1.2 0.1,-2.033333 0.3,-2.5 0.2,-0.466667 0.7,-1.166667 1.5,-2.1 0.21797,-0.195829 0.44104,-0.385895 0.669,-0.57 0.82267,-0.661333 1.43967,-0.992 1.851,-0.992 0.0436,-3.19e-4 0.0872,0.0037 0.13,0.012 0.13962,0.03648 0.27306,0.09343 0.396,0.169 0.612,0.344667 1.673,1.193667 3.183,2.547 0.12398,0.110982 0.24765,0.222316 0.371,0.334 z"
       id="path2"
       inkscape:connector-curvature="0"
       style="vector-effect:non-scaling-stroke"
       sodipodi:nodetypes="cccccccccccccccccccccccccccccccccccccccccccccscccccssccccccc" />
  </g>
  <mask
     id="mask8">
    <path
       stroke-width="6.79332638"
       stroke="red"
       d="M 6.1692973,10.823997 21.256,19.9 v 0"
       stroke-dashoffset="0"
       id="path6" />
  </mask>
  <path
     style="fill:none;stroke:#ff00ff;stroke-width:10.4;stroke-linecap:butt;stroke-linejoin:miter;stroke-opacity:1;stroke-miterlimit:4;stroke-dasharray:none"
     d="M 122.05189,74.691304 162.9747,70.869719"
     id="path815"
     inkscape:connector-curvature="0" />
</svg>
