<?xml version="1.0" encoding="UTF-8" standalone="no"?>
<svg
   xmlns:dc="http://purl.org/dc/elements/1.1/"
   xmlns:cc="http://creativecommons.org/ns#"
   xmlns:rdf="http://www.w3.org/1999/02/22-rdf-syntax-ns#"
   xmlns:svg="http://www.w3.org/2000/svg"
   xmlns="http://www.w3.org/2000/svg"
   xmlns:sodipodi="http://sodipodi.sourceforge.net/DTD/sodipodi-0.dtd"
   xmlns:inkscape="http://www.inkscape.org/namespaces/inkscape"
   width="284.639"
   height="93.64"
   viewBox="0 0 284.639 93.64"
   version="1.1"
   id="svg10"
   sodipodi:docname="stroke10.svg"
   inkscape:version="0.92.5 (2060ec1f9f, 2020-04-08)">
  <metadata
     id="metadata16">
    <rdf:RDF>
      <cc:Work
         rdf:about="">
        <dc:format>image/svg+xml</dc:format>
        <dc:type
           rdf:resource="http://purl.org/dc/dcmitype/StillImage" />
        <dc:title />
      </cc:Work>
    </rdf:RDF>
  </metadata>
  <defs
     id="defs14" />
  <sodipodi:namedview
     pagecolor="#ffffff"
     bordercolor="#666666"
     borderopacity="1"
     objecttolerance="10"
     gridtolerance="10"
     guidetolerance="10"
     inkscape:pageopacity="0"
     inkscape:pageshadow="2"
     inkscape:window-width="1920"
     inkscape:window-height="1034"
     id="namedview12"
     showgrid="false"
     inkscape:zoom="8.881425"
     inkscape:cx="143.4157"
     inkscape:cy="48.994192"
     inkscape:window-x="0"
     inkscape:window-y="0"
     inkscape:window-maximized="1"
     inkscape:current-layer="svg10" />
  <g
     fill-rule="evenodd"
     stroke-width="0.25mm"
     stroke-linecap="round"
     id="g4">
    <path
       d="m 141.956,28.7 -1.3,1.2 1.8,1.6 c 1.26667,1 2.26667,1.633333 3,1.9 0.654,0.163333 1.51933,0.560667 2.596,1.192 0.25365,0.148816 0.50501,0.301501 0.754,0.458 1.328,0.834 2.04067,1.410333 2.138,1.729 0.008,0.02294 0.0115,0.04687 0.012,0.071 0.0226,0.09352 0.077,0.176264 0.154,0.234 0.36533,0.355333 1.377,0.990667 3.035,1.906 0.43529,0.239818 0.8723,0.476491 1.311,0.71 2.47267,1.318667 4.515,2.320333 6.127,3.005 0.32205,0.137227 0.64643,0.268913 0.973,0.395 1.76076,0.661795 3.45003,1.500065 5.042,2.502 0.10313,0.06527 0.2058,0.131274 0.308,0.198 0.51696,0.334196 1.04776,0.646473 1.591,0.936 1.17733,0.633333 2.62733,1.312 4.35,2.036 0.55082,0.231298 1.10385,0.457308 1.659,0.678 3.43333,1.366667 5.35,2.233333 5.75,2.6 0.4,0.366667 1.7,0.816667 3.9,1.35 1.86667,0.533333 2.93333,1.083333 3.2,1.65 0.0455,0.09559 0.0691,0.200135 0.069,0.306 0,0.468667 -0.456,1.006333 -1.368,1.613 -0.0665,0.04447 -0.13348,0.08814 -0.201,0.131 -0.29686,0.163712 -0.60695,0.302199 -0.927,0.414 -0.402,0.138 -0.793,0.216667 -1.173,0.236 -0.055,0.0027 -0.10997,0.0043 -0.165,0.005 -0.66,0.0087 -1.811,-0.093 -3.453,-0.305 -0.12737,-0.01641 -0.2547,-0.03307 -0.382,-0.05 -1.67534,-0.211394 -3.34379,-0.474184 -5.003,-0.788 -1.56867,-0.3 -3.014,-0.634667 -4.336,-1.004 -1.08709,-0.299603 -2.15873,-0.652699 -3.211,-1.058 -3.12617,-1.229362 -6.02941,-2.963402 -8.594,-5.133 -0.0857,-0.07192 -0.17102,-0.144252 -0.256,-0.217 -2.4,-2.066667 -5.01667,-3.966667 -7.85,-5.7 -2.532,-1.548667 -4.26533,-2.751333 -5.2,-3.608 -0.10303,-0.09417 -0.20308,-0.191548 -0.3,-0.292 -0.82,-0.852 -2.46167,-1.897667 -4.925,-3.137 -0.0416,-0.02105 -0.0833,-0.04205 -0.125,-0.063 l -3.8,-1.9 -3.4,3.1 c -2.18467,1.927333 -3.31667,3.019 -3.396,3.275 -0.003,0.0081 -0.004,0.01652 -0.004,0.025 -0.0364,0.189328 -0.12234,0.365635 -0.249,0.511 -0.73467,1.030667 -3.096,3.286667 -7.084,6.768 l -0.367,0.321 c -5.09933,4.436667 -8.35667,7.064667 -9.772,7.884 -0.009,0.0054 -0.0186,0.01069 -0.028,0.016 -1.472,0.710667 -2.49967,1.421333 -3.083,2.132 -0.16975,0.201927 -0.31014,0.426814 -0.417,0.668 -0.12677,0.252014 -0.29552,0.480611 -0.499,0.676 -0.60333,0.614 -1.65867,1.308667 -3.166,2.084 -0.29302,0.150621 -0.58804,0.297301 -0.885,0.44 -0.90771,0.439498 -1.8328,0.84216 -2.773,1.207 -0.902,0.346667 -1.75933,0.627667 -2.572,0.843 -0.529231,0.141705 -1.06482,0.2585 -1.605,0.35 -0.336094,0.05758 -0.67177,0.117585 -1.007,0.18 -1.315333,0.246667 -2.141,0.450667 -2.477,0.612 -0.0054,0.0026 -0.01069,0.0053 -0.016,0.008 -0.03358,0.01697 -0.06795,0.03232 -0.103,0.046 -0.323333,0.124667 -0.489,-0.01367 -0.497,-0.415 -1.03e-4,-0.01033 -1.03e-4,-0.02067 0,-0.031 0.0076,-0.20631 0.06416,-0.407853 0.165,-0.588 0.266667,-0.516667 0.853333,-1.142667 1.76,-1.878 0.14013,-0.113274 0.281811,-0.224618 0.425,-0.334 0.635111,-0.483143 1.291073,-0.938246 1.966,-1.364 0.734667,-0.466667 1.539667,-0.938 2.415,-1.414 0.58428,-0.317558 1.17404,-0.624937 1.769,-0.922 1.306,-0.636391 2.5882,-1.320518 3.844,-2.051 1.53267,-0.895333 2.918,-1.811667 4.156,-2.749 2.026,-1.534667 5.15433,-4.200333 9.385,-7.997 0.37217,-0.333769 0.74384,-0.668102 1.115,-1.003 2.76667,-2.437333 5.045,-4.533 6.835,-6.287 l 0.065,-0.063 c 1.378,-1.352667 2.48233,-2.470667 3.313,-3.354 0.23193,-0.24595 0.46095,-0.494634 0.687,-0.746 0.0945,-0.105554 0.1885,-0.211556 0.282,-0.318 0.66533,-0.756667 0.97167,-1.167 0.919,-1.231 -3.2e-4,-3.44e-4 -6.6e-4,-6.78e-4 -0.001,-0.001 -0.0784,-0.05487 -0.16022,-0.104643 -0.245,-0.149 -0.40133,-0.22 -1.199,-0.594333 -2.393,-1.123 -0.28697,-0.126832 -0.5743,-0.252832 -0.862,-0.378 -1.83667,-0.799333 -2.98867,-1.243667 -3.456,-1.333 -0.0474,-0.01 -0.0956,-0.01569 -0.144,-0.017 -0.13307,-0.004 -0.26497,-0.02618 -0.392,-0.066 -0.51267,-0.148 -1.282,-0.542667 -2.308,-1.184 -1.06297,-0.668548 -2.29531,-1.018365 -3.551,-1.008 -0.31721,4.12e-4 -0.6341,0.01978 -0.949,0.058 -0.2486,0.01852 -0.49773,0.0292 -0.747,0.032 -0.81667,0.008 -1.56467,-0.076 -2.244,-0.252 -1.22726,-0.296895 -2.32097,-0.993433 -3.109,-1.98 -0.068,-0.07236 -0.13015,-0.149931 -0.186,-0.232 -0.45933,-0.688 0.035,-1.213333 1.483,-1.576 0.13368,-0.03344 0.26805,-0.06412 0.403,-0.092 0.34794,-0.04395 0.69444,-0.09865 1.039,-0.164 0.22105,-0.04176 0.44142,-0.0871 0.661,-0.136 1.73333,-0.2 4.06667,-0.7 7,-1.5 3.82861,-1.113529 7.68967,-2.112309 11.578,-2.995 3.51469,-0.799275 7.05779,-1.468067 10.622,-2.005 4.17933,-0.666 6.81767,-0.396667 7.915,0.808 0.10942,0.119545 0.20503,0.251042 0.285,0.392 0.0849,0.121807 0.15415,0.253852 0.206,0.393 0.34133,0.933333 -0.389,1.866333 -2.191,2.799 l -0.015,0.008 c -1.4,0.8 -2.25,1.566667 -2.55,2.3 -0.29067,0.71 -1.22233,1.545333 -2.795,2.506 -0.0515,0.03154 -0.10321,0.06287 -0.155,0.094 -0.48702,0.291174 -0.96909,0.59055 -1.446,0.898 -0.974,0.630667 -1.75867,1.198 -2.354,1.702 z m -7.8,-0.8 3.1,1 1.3,-1.8 c 0.26557,-0.300776 0.53425,-0.598792 0.806,-0.894 0.83467,-0.907333 1.82733,-1.937333 2.978,-3.09 L 142.456,23 c 0.33333,-0.466667 0.65,-0.9 0.95,-1.3 0.3,-0.4 0.53333,-0.716667 0.7,-0.95 0.0244,-0.034 0.0468,-0.06939 0.067,-0.106 0.1,-0.182 0.095,-0.329 -0.015,-0.441 -6.6e-4,-0.001 -0.001,-0.002 -0.002,-0.003 -0.36067,-0.18 -1.33067,-0.03533 -2.91,0.434 -0.18046,0.05382 -0.36047,0.109159 -0.54,0.166 -0.67403,0.211724 -1.34227,0.441473 -2.004,0.689 -0.64933,0.244 -1.25067,0.493333 -1.804,0.748 -0.31805,0.145956 -0.63216,0.300344 -0.942,0.463 -0.96179,0.467368 -1.95805,0.860189 -2.98,1.175 -0.74352,0.227657 -1.50203,0.403084 -2.27,0.525 -1.7,0.266667 -2.55,0.533333 -2.55,0.8 0,0.396 1.44067,1.104333 4.322,2.125 0.55755,0.196839 1.1169,0.388514 1.678,0.575 z"
       id="path2"
       inkscape:connector-curvature="0"
       style="vector-effect:non-scaling-stroke"
       sodipodi:nodetypes="ccccccccccccccccccsccccccccccccccccccccccccccccccccccccccccccccccccccccccccccccccccccccccccccccccccccccccccccccccccscccccccccccscc" />
  </g>
  <mask
     id="mask8">
    <path
       stroke-width="6.79332638"
       stroke="red"
       d="M 6.1692973,10.823997 21.256,19.9 v 0"
       stroke-dashoffset="0"
       id="path6" />
  </mask>
  <path
     style="fill:none;stroke:#ff00ff;stroke-width:10.19999962;stroke-linecap:butt;stroke-linejoin:miter;stroke-opacity:1;stroke-miterlimit:4;stroke-dasharray:none"
     d="m 120.92654,23.943977 24.43302,11.935021 16.88918,10.921671 26.23453,10.583887"
     id="path815"
     inkscape:connector-curvature="0" />
</svg>
