<?xml version="1.0" encoding="UTF-8" standalone="no"?>
<svg
   xmlns:dc="http://purl.org/dc/elements/1.1/"
   xmlns:cc="http://creativecommons.org/ns#"
   xmlns:rdf="http://www.w3.org/1999/02/22-rdf-syntax-ns#"
   xmlns:svg="http://www.w3.org/2000/svg"
   xmlns="http://www.w3.org/2000/svg"
   xmlns:sodipodi="http://sodipodi.sourceforge.net/DTD/sodipodi-0.dtd"
   xmlns:inkscape="http://www.inkscape.org/namespaces/inkscape"
   width="284.639"
   height="93.64"
   viewBox="0 0 284.639 93.64"
   version="1.1"
   id="svg10"
   sodipodi:docname="stroke11.svg"
   inkscape:version="0.92.5 (2060ec1f9f, 2020-04-08)">
  <metadata
     id="metadata16">
    <rdf:RDF>
      <cc:Work
         rdf:about="">
        <dc:format>image/svg+xml</dc:format>
        <dc:type
           rdf:resource="http://purl.org/dc/dcmitype/StillImage" />
      </cc:Work>
    </rdf:RDF>
  </metadata>
  <defs
     id="defs14" />
  <sodipodi:namedview
     pagecolor="#ffffff"
     bordercolor="#666666"
     borderopacity="1"
     objecttolerance="10"
     gridtolerance="10"
     guidetolerance="10"
     inkscape:pageopacity="0"
     inkscape:pageshadow="2"
     inkscape:window-width="1920"
     inkscape:window-height="1034"
     id="namedview12"
     showgrid="false"
     inkscape:zoom="17.76285"
     inkscape:cx="140.61845"
     inkscape:cy="31.026497"
     inkscape:window-x="0"
     inkscape:window-y="0"
     inkscape:window-maximized="1"
     inkscape:current-layer="svg10" />
  <g
     fill-rule="evenodd"
     stroke-width="0.25mm"
     stroke-linecap="round"
     id="g4">
    <path
       d="m 142.856,53.3 h 3.8 c 1.73867,-0.128667 2.80867,-0.148667 3.21,-0.06 0.0134,0.003 0.0267,0.0063 0.04,0.01 0.13019,0.03877 0.25009,0.106067 0.351,0.197 0.24067,0.206667 0.47367,0.557667 0.699,1.053 0.0427,0.148803 0.0745,0.300544 0.095,0.454 0.0973,0.736 -0.11767,1.368 -0.645,1.896 -0.612,0.611333 -1.89233,1.269667 -3.841,1.975 -0.0696,0.02521 -0.13926,0.05021 -0.209,0.075 l -3.1,1.2 -12,3.2 h -2.1 c -1.03459,0.0105 -2.06464,-0.138242 -3.054,-0.441 -1.36065,-0.426848 -2.58408,-1.206242 -3.546,-2.259 -0.0865,-0.104323 -0.16598,-0.214227 -0.238,-0.329 -0.36467,-0.590667 -0.33533,-1.097667 0.088,-1.521 0.5,-0.5 1.78333,-0.85 3.85,-1.05 0.39572,-0.03449 0.79079,-0.07616 1.185,-0.125 z"
       id="path2"
       inkscape:connector-curvature="0"
       style="vector-effect:non-scaling-stroke"
       sodipodi:nodetypes="ccccccccccccccccsccc" />
  </g>
  <mask
     id="mask8">
    <path
       stroke-width="6.79332638"
       stroke="red"
       d="M 6.1692973,10.823997 21.256,19.9 v 0"
       stroke-dashoffset="0"
       id="path6" />
  </mask>
  <path
     style="fill:none;stroke:#ff00ff;stroke-width:9.9;stroke-linecap:butt;stroke-linejoin:miter;stroke-opacity:1;stroke-miterlimit:4;stroke-dasharray:none"
     d="m 122.05249,60.312014 29.44347,-6.023808"
     id="path815"
     inkscape:connector-curvature="0" />
</svg>
