<?xml version="1.0" encoding="UTF-8" standalone="no"?>
<svg
   xmlns:dc="http://purl.org/dc/elements/1.1/"
   xmlns:cc="http://creativecommons.org/ns#"
   xmlns:rdf="http://www.w3.org/1999/02/22-rdf-syntax-ns#"
   xmlns:svg="http://www.w3.org/2000/svg"
   xmlns="http://www.w3.org/2000/svg"
   xmlns:sodipodi="http://sodipodi.sourceforge.net/DTD/sodipodi-0.dtd"
   xmlns:inkscape="http://www.inkscape.org/namespaces/inkscape"
   width="284.639"
   height="93.64"
   viewBox="0 0 284.639 93.64"
   version="1.1"
   id="svg10"
   sodipodi:docname="stroke15.svg"
   inkscape:version="0.92.5 (2060ec1f9f, 2020-04-08)">
  <metadata
     id="metadata16">
    <rdf:RDF>
      <cc:Work
         rdf:about="">
        <dc:format>image/svg+xml</dc:format>
        <dc:type
           rdf:resource="http://purl.org/dc/dcmitype/StillImage" />
        <dc:title />
      </cc:Work>
    </rdf:RDF>
  </metadata>
  <defs
     id="defs14" />
  <sodipodi:namedview
     pagecolor="#ffffff"
     bordercolor="#666666"
     borderopacity="1"
     objecttolerance="10"
     gridtolerance="10"
     guidetolerance="10"
     inkscape:pageopacity="0"
     inkscape:pageshadow="2"
     inkscape:window-width="1920"
     inkscape:window-height="1034"
     id="namedview12"
     showgrid="false"
     inkscape:zoom="8.881425"
     inkscape:cx="256.34872"
     inkscape:cy="43.456495"
     inkscape:window-x="0"
     inkscape:window-y="0"
     inkscape:window-maximized="1"
     inkscape:current-layer="svg10" />
  <g
     fill-rule="evenodd"
     stroke-width="0.25mm"
     stroke-linecap="round"
     id="g4">
    <path
       d="m 282.556,32.7 -2.1,1.8 -6,-0.7 c -1.16645,-0.161111 -2.33563,-0.301799 -3.507,-0.422 -2.762,-0.28 -5.08,-0.375667 -6.954,-0.287 -0.29669,0.0139 -0.59308,0.03357 -0.889,0.059 -0.74386,0.06922 -1.48578,0.157914 -2.225,0.266 -3.186,0.45 -8.29433,1.378 -15.325,2.784 -4.06667,0.8 -8.18333,1.733333 -12.35,2.8 -4.16667,1.066667 -8.51667,1.933333 -13.05,2.6 -1.02275,0.125465 -2.04415,0.261806 -3.064,0.409 -4.02867,0.586 -6.34067,1.149667 -6.936,1.691 -0.26667,0.2 -0.96667,0.01667 -2.1,-0.55 -0.31436,-0.158451 -0.62639,-0.321468 -0.936,-0.489 -1.34067,-0.722 -3.49533,-1.942333 -6.464,-3.661 -0.36473,-0.233192 -0.72191,-0.477983 -1.071,-0.734 -1.87933,-1.386 -2.48467,-2.476667 -1.816,-3.272 0.0276,-0.03256 0.0567,-0.06393 0.087,-0.094 0.34867,-0.348667 5.21367,-0.545333 14.595,-0.59 1.46832,-0.0068 2.93666,-0.01014 4.405,-0.01 1.78803,-0.01336 3.57603,-0.0297 5.364,-0.049 5.83133,-0.06333 9.73867,-0.146667 11.722,-0.25 L 233.956,34 c 1.74133,-0.09133 3.75067,-0.309 6.028,-0.653 1.09334,-0.165972 2.18413,-0.348325 3.272,-0.547 l 14.1,-2.4 c 4.01,-0.636667 6.42467,-1.091 7.244,-1.363 0.0356,-0.01156 0.0709,-0.0239 0.106,-0.037 0.16083,-0.0572 0.3265,-0.0997 0.495,-0.127 0.82,-0.146667 2.25767,-0.195 4.313,-0.145 0.24736,0.0062 0.4947,0.01358 0.742,0.022 3,0.1 6.16667,0.15 9.5,0.15 0.4881,-7.56e-4 0.97618,0.0072 1.464,0.024 1.952,0.07067 3.064,0.296 3.336,0.676 0.053,0.07605 0.082,0.166294 0.083,0.259 0.018,0.536 -0.65867,1.466 -2.03,2.79 -0.0176,0.01702 -0.0353,0.03402 -0.053,0.051 z"
       id="path2"
       inkscape:connector-curvature="0"
       style="vector-effect:non-scaling-stroke"
       sodipodi:nodetypes="ccccccccscccccccccccccccccccccccccccc" />
  </g>
  <mask
     id="mask8">
    <path
       stroke-width="6.79332638"
       stroke="red"
       d="M 6.1692973,10.823997 21.256,19.9 v 0"
       stroke-dashoffset="0"
       id="path6" />
  </mask>
  <path
     style="fill:none;stroke:#ff00ff;stroke-width:16;stroke-linecap:butt;stroke-linejoin:miter;stroke-opacity:1;stroke-miterlimit:4;stroke-dasharray:none"
     d="m 196.81526,37.004944 89.17488,-6.980862"
     id="path815"
     inkscape:connector-curvature="0" />
</svg>
