<?xml version="1.0" encoding="UTF-8" standalone="no"?>
<svg
   xmlns:dc="http://purl.org/dc/elements/1.1/"
   xmlns:cc="http://creativecommons.org/ns#"
   xmlns:rdf="http://www.w3.org/1999/02/22-rdf-syntax-ns#"
   xmlns:svg="http://www.w3.org/2000/svg"
   xmlns="http://www.w3.org/2000/svg"
   xmlns:sodipodi="http://sodipodi.sourceforge.net/DTD/sodipodi-0.dtd"
   xmlns:inkscape="http://www.inkscape.org/namespaces/inkscape"
   width="284.639"
   height="93.64"
   viewBox="0 0 284.639 93.64"
   version="1.1"
   id="svg10"
   sodipodi:docname="stroke16.svg"
   inkscape:version="0.92.5 (2060ec1f9f, 2020-04-08)">
  <metadata
     id="metadata16">
    <rdf:RDF>
      <cc:Work
         rdf:about="">
        <dc:format>image/svg+xml</dc:format>
        <dc:type
           rdf:resource="http://purl.org/dc/dcmitype/StillImage" />
        <dc:title />
      </cc:Work>
    </rdf:RDF>
  </metadata>
  <defs
     id="defs14" />
  <sodipodi:namedview
     pagecolor="#ffffff"
     bordercolor="#666666"
     borderopacity="1"
     objecttolerance="10"
     gridtolerance="10"
     guidetolerance="10"
     inkscape:pageopacity="0"
     inkscape:pageshadow="2"
     inkscape:window-width="1920"
     inkscape:window-height="1034"
     id="namedview12"
     showgrid="false"
     inkscape:zoom="17.76285"
     inkscape:cx="242.83465"
     inkscape:cy="37.554388"
     inkscape:window-x="0"
     inkscape:window-y="0"
     inkscape:window-maximized="1"
     inkscape:current-layer="svg10" />
  <g
     fill-rule="evenodd"
     stroke-width="0.25mm"
     stroke-linecap="round"
     id="g4">
    <path
       d="m 243.456,43.6 3,2.9 -2,2.1 c -0.21149,0.211946 -0.42686,0.419981 -0.646,0.624 -1.024,0.951333 -1.67533,1.343333 -1.954,1.176 -0.0747,-0.05036 -0.16292,-0.07686 -0.253,-0.076 -0.39067,0 -0.923,0.458667 -1.597,1.376 -0.15704,0.212619 -0.30744,0.430057 -0.451,0.652 -0.51933,0.806667 -0.75233,1.422667 -0.699,1.848 0.2,0.666667 0.13333,1.1 -0.2,1.3 -0.33333,0.2 -0.4,0.366667 -0.2,0.5 0.0763,0.127991 0.1958,0.224472 0.337,0.272 3.661,4.688048 1.61291,6.147515 -4.326,5.512 -0.18533,-0.122667 -0.50633,-0.198333 -0.963,-0.227 -0.0493,-0.0029 -0.0986,-0.0053 -0.148,-0.007 -0.12561,-0.0048 -0.2513,-0.0071 -0.377,-0.007 -0.42933,0 -0.878,0.027 -1.346,0.081 -0.37775,0.04442 -0.75369,0.103124 -1.127,0.176 -1.03333,0.2 -1.65,0.433333 -1.85,0.7 -0.12919,0.146821 -0.27292,0.280169 -0.429,0.398 -0.33,0.255333 -0.77033,0.515333 -1.321,0.78 -0.19801,0.09499 -0.39806,0.18568 -0.6,0.272 -1.14067,0.488667 -1.83533,0.659 -2.084,0.511 -0.005,-0.0034 -0.0108,-0.0071 -0.016,-0.011 -0.046,-0.03446 -0.0797,-0.08286 -0.096,-0.138 -0.08,-0.24 0.0187,-0.712333 0.296,-1.417 0.0324,-0.08203 0.0658,-0.163704 0.1,-0.245 0.0691,-0.163758 0.13243,-0.329858 0.19,-0.498 0.26067,-0.768 0.28067,-1.318333 0.06,-1.651 V 60.5 c -0.10992,-0.137965 -0.19579,-0.293478 -0.254,-0.46 -0.20333,-0.531333 -0.34033,-1.381333 -0.411,-2.55 -0.0153,-0.263158 -0.027,-0.526517 -0.035,-0.79 -0.088,-0.786667 -0.004,-1.387 0.253,-1.801 0.13143,-0.214756 0.32111,-0.387795 0.547,-0.499 0.18306,-0.09817 0.35796,-0.210862 0.523,-0.337 0.82533,-0.606 2.23367,-1.877333 4.225,-3.814 l 0.102,-0.099 c 0.57592,-0.558303 1.13517,-1.133556 1.677,-1.725 1.00267,-1.100667 1.75,-2.077667 2.242,-2.931 0.24344,-0.407213 0.43843,-0.841495 0.581,-1.294 0.43333,-1.466667 1.01667,-2.5 1.75,-3.1 0.28188,-0.302463 0.6257,-0.540547 1.008,-0.698 1.61,-0.64 3.774,0.426 6.492,3.198 z"
       id="path2"
       inkscape:connector-curvature="0"
       style="vector-effect:non-scaling-stroke"
       sodipodi:nodetypes="cccccccccscccccccccccccccccccccccccccccccccc" />
  </g>
  <mask
     id="mask8">
    <path
       stroke-width="6.79332638"
       stroke="red"
       d="M 6.1692973,10.823997 21.256,19.9 v 0"
       stroke-dashoffset="0"
       id="path6" />
  </mask>
  <path
     style="fill:none;stroke:#ff00ff;stroke-width:13.2;stroke-linecap:butt;stroke-linejoin:miter;stroke-miterlimit:4;stroke-dasharray:none;stroke-opacity:1"
     d="m 243.26051,41.565023 -14.91878,18.071424 12.72319,2.251891"
     id="path815"
     inkscape:connector-curvature="0"
     sodipodi:nodetypes="ccc" />
</svg>
