<?xml version="1.0" encoding="UTF-8" standalone="no"?>
<svg
   xmlns:dc="http://purl.org/dc/elements/1.1/"
   xmlns:cc="http://creativecommons.org/ns#"
   xmlns:rdf="http://www.w3.org/1999/02/22-rdf-syntax-ns#"
   xmlns:svg="http://www.w3.org/2000/svg"
   xmlns="http://www.w3.org/2000/svg"
   xmlns:sodipodi="http://sodipodi.sourceforge.net/DTD/sodipodi-0.dtd"
   xmlns:inkscape="http://www.inkscape.org/namespaces/inkscape"
   width="284.639"
   height="93.64"
   viewBox="0 0 284.639 93.64"
   version="1.1"
   id="svg10"
   sodipodi:docname="stroke18.svg"
   inkscape:version="0.92.5 (2060ec1f9f, 2020-04-08)">
  <metadata
     id="metadata16">
    <rdf:RDF>
      <cc:Work
         rdf:about="">
        <dc:format>image/svg+xml</dc:format>
        <dc:type
           rdf:resource="http://purl.org/dc/dcmitype/StillImage" />
        <dc:title />
      </cc:Work>
    </rdf:RDF>
  </metadata>
  <defs
     id="defs14" />
  <sodipodi:namedview
     pagecolor="#ffffff"
     bordercolor="#666666"
     borderopacity="1"
     objecttolerance="10"
     gridtolerance="10"
     guidetolerance="10"
     inkscape:pageopacity="0"
     inkscape:pageshadow="2"
     inkscape:window-width="1920"
     inkscape:window-height="1034"
     id="namedview12"
     showgrid="false"
     inkscape:zoom="8.881425"
     inkscape:cx="242.83737"
     inkscape:cy="43.456495"
     inkscape:window-x="0"
     inkscape:window-y="0"
     inkscape:window-maximized="1"
     inkscape:current-layer="svg10" />
  <g
     fill-rule="evenodd"
     stroke-width="0.25mm"
     stroke-linecap="round"
     id="g4">
    <path
       d="m 243.456,43.6 3,2.9 -2,2.1 c -0.21149,0.211946 -0.42686,0.419981 -0.646,0.624 -1.024,0.951333 -1.67533,1.343333 -1.954,1.176 -0.0747,-0.05036 -0.16292,-0.07686 -0.253,-0.076 -0.39067,0 -0.923,0.458667 -1.597,1.376 -0.15704,0.212619 -0.30744,0.430057 -0.451,0.652 -0.51933,0.806667 -0.75233,1.422667 -0.699,1.848 0.2,0.666667 0.13333,1.1 -0.2,1.3 -0.33333,0.2 -0.4,0.366667 -0.2,0.5 0.0763,0.127991 0.1958,0.224472 0.337,0.272 0.43,0.162 1.18433,0.07133 2.263,-0.272 1.22027,-0.382974 2.39027,-0.910733 3.485,-1.572 0.17391,-0.105772 0.34561,-0.215128 0.515,-0.328 1.43067,-1.014 2.64833,-1.841 3.653,-2.481 0.11534,-0.07352 0.23101,-0.146519 0.347,-0.219 0.842,-0.526667 1.466,-1.001333 1.872,-1.424 0.0997,-0.102442 0.1926,-0.211344 0.278,-0.326 0.0731,-0.101744 0.15837,-0.194105 0.254,-0.275 0.32067,-0.266 0.70267,-0.307667 1.146,-0.125 0.0563,0.02351 0.11408,0.04322 0.173,0.059 0.418,0.109333 0.72133,-0.06367 0.91,-0.519 0.0255,-0.06218 0.0479,-0.125589 0.067,-0.19 0.0288,-0.118772 0.0659,-0.235388 0.111,-0.349 0.104,-0.256667 0.238,-0.435667 0.402,-0.537 0.043,-0.02658 0.089,-0.04805 0.137,-0.064 0.3,-0.1 0.53333,0.1 0.7,0.6 0.16667,0.5 0.65,0.75 1.45,0.75 0.51726,0.0048 1.02807,0.115421 1.501,0.325 0.446,0.190667 0.89567,0.465667 1.349,0.825 0.21653,0.170052 0.42258,0.353054 0.617,0.548 0.55533,0.562667 0.833,1.096667 0.833,1.602 0.005,1.078529 -0.54487,2.083862 -1.456,2.661 -0.40067,0.284 -0.88433,0.533667 -1.451,0.749 -0.55144,0.204985 -1.11732,0.368768 -1.693,0.49 -4.20933,0.842 -9.151,3.663667 -14.825,8.465 -0.63281,0.535978 -1.25788,1.081034 -1.875,1.635 -3.74333,3.235333 -5.615,5.022 -5.615,5.36 -7.1e-4,0.01483 0.005,0.0293 0.015,0.04 0.0192,0.02058 0.0451,0.03368 0.073,0.037 0.444,0.100667 2.73633,-0.278333 6.877,-1.137 3.894,-0.808 6.70233,-1.466 8.425,-1.974 0.24295,-0.07115 0.48465,-0.146491 0.725,-0.226 0.14162,-0.04445 0.27288,-0.116883 0.386,-0.213 0.29933,-0.263333 0.38733,-0.692333 0.264,-1.287 -0.0209,-0.0992 -0.0373,-0.199301 -0.049,-0.3 -0.034,-0.296667 -0.0177,-0.558667 0.049,-0.786 0.0753,-0.263679 0.23299,-0.496352 0.45,-0.664 0.21951,-0.177496 0.38849,-0.409588 0.49,-0.673 0.074,-0.181333 0.12867,-0.386333 0.164,-0.615 0.0319,-0.219203 0.0473,-0.440493 0.046,-0.662 0,-1.754 0.886,-2.463667 2.658,-2.129 0.0474,0.0091 0.0948,0.01876 0.142,0.029 1.6,0.266667 2.83333,1.8 3.7,4.6 0.19603,0.659553 0.41246,1.312867 0.649,1.959 0.796,2.156 1.613,3.469667 2.451,3.941 0.6,0.466667 0.9,1.666667 0.9,3.6 0,1.246 -0.0553,2.117667 -0.166,2.615 -0.0197,0.09725 -0.0478,0.192602 -0.084,0.285 -0.0508,0.11242 -0.11563,0.217931 -0.193,0.314 -0.24933,0.324667 -0.69633,0.745 -1.341,1.261 -0.13749,0.109834 -0.27616,0.218173 -0.416,0.325 -1.49867,1.124 -2.471,1.619333 -2.917,1.486 -0.029,-0.0087 -0.0569,-0.02076 -0.083,-0.036 -0.34267,-0.199333 -1.17333,-0.899333 -2.492,-2.1 -0.23675,-0.215853 -0.47275,-0.432521 -0.708,-0.65 -0.2169,-0.202618 -0.43059,-0.408644 -0.641,-0.618 -0.62067,-0.62 -1.036,-1.108667 -1.246,-1.466 -0.0223,-0.03794 -0.0433,-0.07663 -0.063,-0.116 -0.23333,-0.466667 -0.41667,-1.366667 -0.55,-2.7 5e-5,-0.197007 -10e-4,-0.394012 -0.004,-0.591 -0.0187,-1.297333 -0.10067,-2.033667 -0.246,-2.209 -0.14667,-0.175333 -1.25567,0.08533 -3.327,0.782 -0.3083,0.104161 -0.61597,0.210162 -0.923,0.318 -6.234,2.33 -10.654,3.797333 -13.26,4.402 -0.14633,0.03418 -0.293,0.06685 -0.44,0.098 -0.38331,0.0679 -0.76128,0.163147 -1.131,0.285 -0.80533,0.257333 -1.765,0.659333 -2.879,1.206 -0.39973,0.196951 -0.79645,0.399975 -1.19,0.609 -2.8,1.4 -4.23333,1.633333 -4.3,0.7 2e-4,-0.08691 0.006,-0.173725 0.016,-0.26 0.01,-0.08467 0.0247,-0.173667 0.044,-0.267 0.0121,-0.05794 0.0255,-0.115619 0.04,-0.173 0.352,-0.998 -0.071,-2.228333 -1.269,-3.691 -0.17096,-0.208188 -0.34804,-0.411277 -0.531,-0.609 -0.494,-0.494 -0.741,-0.960333 -0.741,-1.399 2.9e-4,-0.154864 0.0312,-0.30814 0.091,-0.451 0.23333,-0.566667 1.01667,-1.25 2.35,-2.05 2.4,-1.733333 4.81667,-3.5 7.25,-5.3 2.43333,-1.8 3.65,-2.833333 3.65,-3.1 -0.002,-0.131486 -0.0742,-0.25187 -0.189,-0.316 -0.18533,-0.122667 -0.50633,-0.198333 -0.963,-0.227 -0.0493,-0.0029 -0.0986,-0.0053 -0.148,-0.007 -0.12561,-0.0048 -0.2513,-0.0071 -0.377,-0.007 -0.42933,0 -0.878,0.027 -1.346,0.081 -0.37775,0.04442 -0.75369,0.103124 -1.127,0.176 -1.03333,0.2 -1.65,0.433333 -1.85,0.7 -0.12919,0.146821 -0.27292,0.280169 -0.429,0.398 -0.33,0.255333 -0.77033,0.515333 -1.321,0.78 -0.19801,0.09499 -0.39806,0.18568 -0.6,0.272 -1.14067,0.488667 -1.83533,0.659 -2.084,0.511 -0.005,-0.0034 -0.0108,-0.0071 -0.016,-0.011 -0.046,-0.03446 -0.0797,-0.08286 -0.096,-0.138 -0.08,-0.24 0.0187,-0.712333 0.296,-1.417 0.0324,-0.08203 0.0658,-0.163704 0.1,-0.245 0.0691,-0.163758 0.13243,-0.329858 0.19,-0.498 0.26067,-0.768 0.28067,-1.318333 0.06,-1.651 V 60.5 c -0.10992,-0.137965 -0.19579,-0.293478 -0.254,-0.46 -0.20333,-0.531333 -0.34033,-1.381333 -0.411,-2.55 -0.0153,-0.263158 -0.027,-0.526517 -0.035,-0.79 -0.088,-0.786667 -0.004,-1.387 0.253,-1.801 0.13143,-0.214756 0.32111,-0.387795 0.547,-0.499 0.18306,-0.09817 0.35796,-0.210862 0.523,-0.337 0.82533,-0.606 2.23367,-1.877333 4.225,-3.814 l 0.102,-0.099 c 0.57592,-0.558303 1.13517,-1.133556 1.677,-1.725 1.00267,-1.100667 1.75,-2.077667 2.242,-2.931 0.24344,-0.407213 0.43843,-0.841495 0.581,-1.294 0.43333,-1.466667 1.01667,-2.5 1.75,-3.1 0.28188,-0.302463 0.6257,-0.540547 1.008,-0.698 1.61,-0.64 3.774,0.426 6.492,3.198 z"
       id="path2"
       inkscape:connector-curvature="0"
       style="vector-effect:non-scaling-stroke"
       sodipodi:nodetypes="cccccccccscccccccccccccccccscccccccccccccccccccccccccccccscccccccccccccccccccccccccccccccsccccccccccccccccccccccccccccccccc" />
  </g>
  <mask
     id="mask8">
    <path
       stroke-width="6.79332638"
       stroke="red"
       d="M 6.1692973,10.823997 21.256,19.9 v 0"
       stroke-dashoffset="0"
       id="path6" />
  </mask>
  <path
     style="fill:none;stroke:#ff00ff;stroke-width:11.6;stroke-linecap:butt;stroke-linejoin:miter;stroke-opacity:1;stroke-miterlimit:4;stroke-dasharray:none"
     d="m 252.77475,60.649798 6.75567,20.379612"
     id="path815"
     inkscape:connector-curvature="0" />
</svg>
