<?xml version="1.0" encoding="UTF-8" standalone="no"?>
<svg
   xmlns:dc="http://purl.org/dc/elements/1.1/"
   xmlns:cc="http://creativecommons.org/ns#"
   xmlns:rdf="http://www.w3.org/1999/02/22-rdf-syntax-ns#"
   xmlns:svg="http://www.w3.org/2000/svg"
   xmlns="http://www.w3.org/2000/svg"
   xmlns:sodipodi="http://sodipodi.sourceforge.net/DTD/sodipodi-0.dtd"
   xmlns:inkscape="http://www.inkscape.org/namespaces/inkscape"
   width="284.639"
   height="93.64"
   viewBox="0 0 284.639 93.64"
   version="1.1"
   id="svg10"
   sodipodi:docname="stroke14.svg"
   inkscape:version="0.92.5 (2060ec1f9f, 2020-04-08)">
  <metadata
     id="metadata16">
    <rdf:RDF>
      <cc:Work
         rdf:about="">
        <dc:format>image/svg+xml</dc:format>
        <dc:type
           rdf:resource="http://purl.org/dc/dcmitype/StillImage" />
        <dc:title />
      </cc:Work>
    </rdf:RDF>
  </metadata>
  <defs
     id="defs14" />
  <sodipodi:namedview
     pagecolor="#ffffff"
     bordercolor="#666666"
     borderopacity="1"
     objecttolerance="10"
     gridtolerance="10"
     guidetolerance="10"
     inkscape:pageopacity="0"
     inkscape:pageshadow="2"
     inkscape:window-width="1920"
     inkscape:window-height="1034"
     id="namedview12"
     showgrid="false"
     inkscape:zoom="8.881425"
     inkscape:cx="215.81468"
     inkscape:cy="56.96784"
     inkscape:window-x="0"
     inkscape:window-y="0"
     inkscape:window-maximized="1"
     inkscape:current-layer="svg10" />
  <g
     fill-rule="evenodd"
     stroke-width="0.25mm"
     stroke-linecap="round"
     id="g4">
    <path
       d="m 232.785,13.582 c -0.0205,0.205346 -0.0302,0.411633 -0.029,0.618 1e-5,0.03167 3.5e-4,0.06334 0.001,0.095 0.018,0.909333 0.295,2.256 0.831,4.04 0.19427,0.64206 0.4003,1.280501 0.618,1.915 0.96667,2.833333 1.88333,4.916667 2.75,6.25 0.73333,1.133333 1.53333,1.866667 2.4,2.2 0.0275,0.01072 0.0552,0.02106 0.083,0.031 0.826,0.291333 1.465,0.114333 1.917,-0.531 0.25,-0.374667 0.591,-0.697667 1.023,-0.969 0.27783,-0.171477 0.57151,-0.315809 0.877,-0.431 0.57467,-0.335333 1.14967,-0.929333 1.725,-1.782 0.24237,-0.361899 0.46762,-0.734976 0.675,-1.118 0.0266,-0.04916 0.053,-0.0985 0.079,-0.148 0.606,-1.146 0.89933,-2.125 0.88,-2.937 -0.004,-0.173132 -0.0233,-0.345551 -0.059,-0.515 -0.2,-0.933333 0,-1.7 0.6,-2.3 l 0.077,-0.139 c 0.21267,-0.385333 0.38067,-0.695333 0.504,-0.93 0.0404,-0.07663 0.08,-0.153633 0.119,-0.231 3e-5,-0.01234 -3.1e-4,-0.02468 -0.001,-0.037 -0.0207,-0.354 -0.35367,-0.208333 -0.999,0.437 -0.4,0.266667 -0.73333,0.4 -1,0.4 -0.0358,2.15e-4 -0.0716,-0.0025 -0.107,-0.008 -0.144,-0.02333 -0.24367,-0.09733 -0.299,-0.222 -0.0229,-0.05421 -0.0377,-0.111487 -0.044,-0.17 -0.004,-0.03018 -0.006,-0.06057 -0.006,-0.091 0,-0.250667 0.11867,-0.553667 0.356,-0.909 0,-0.533333 -2.16667,-1.166667 -6.5,-1.9 -0.019,-0.0049 -0.038,-0.0099 -0.057,-0.015 -0.542,-0.142 -1.45633,-0.470333 -2.743,-0.985 -1.31867,-0.659333 -2.24667,-0.968333 -2.784,-0.927 -0.056,0.0039 -0.11161,0.01294 -0.166,0.027 -0.18731,0.0526 -0.34708,0.175473 -0.446,0.343 -0.13933,0.217333 -0.231,0.530333 -0.275,0.939 z"
       id="path2"
       inkscape:connector-curvature="0"
       style="vector-effect:non-scaling-stroke"
       sodipodi:nodetypes="ccccccccccccccccccccccccccccccccccc" />
  </g>
  <mask
     id="mask8">
    <path
       stroke-width="6.79332638"
       stroke="red"
       d="M 6.1692973,10.823997 21.256,19.9 v 0"
       stroke-dashoffset="0"
       id="path6" />
  </mask>
  <path
     style="fill:none;stroke:#ff00ff;stroke-width:16;stroke-linecap:butt;stroke-linejoin:miter;stroke-opacity:1;stroke-miterlimit:4;stroke-dasharray:none"
     d="m 232.05736,10.65782 13.96172,15.425453"
     id="path815"
     inkscape:connector-curvature="0" />
</svg>
