<?xml version="1.0" encoding="UTF-8" standalone="no"?>
<svg
   xmlns:dc="http://purl.org/dc/elements/1.1/"
   xmlns:cc="http://creativecommons.org/ns#"
   xmlns:rdf="http://www.w3.org/1999/02/22-rdf-syntax-ns#"
   xmlns:svg="http://www.w3.org/2000/svg"
   xmlns="http://www.w3.org/2000/svg"
   xmlns:sodipodi="http://sodipodi.sourceforge.net/DTD/sodipodi-0.dtd"
   xmlns:inkscape="http://www.inkscape.org/namespaces/inkscape"
   width="284.639"
   height="93.64"
   viewBox="0 0 284.639 93.64"
   version="1.1"
   id="svg10"
   sodipodi:docname="name.svg"
   inkscape:version="0.92.5 (2060ec1f9f, 2020-04-08)">
  <metadata
     id="metadata16">
    <rdf:RDF>
      <cc:Work
         rdf:about="">
        <dc:format>image/svg+xml</dc:format>
        <dc:type
           rdf:resource="http://purl.org/dc/dcmitype/StillImage" />
      </cc:Work>
    </rdf:RDF>
  </metadata>
  <defs
     id="defs14" />
  <sodipodi:namedview
     pagecolor="#ffffff"
     bordercolor="#666666"
     borderopacity="1"
     objecttolerance="10"
     gridtolerance="10"
     guidetolerance="10"
     inkscape:pageopacity="0"
     inkscape:pageshadow="2"
     inkscape:window-width="1920"
     inkscape:window-height="1034"
     id="namedview12"
     showgrid="false"
     inkscape:zoom="4.4407125"
     inkscape:cx="116.92254"
     inkscape:cy="31.042326"
     inkscape:window-x="0"
     inkscape:window-y="0"
     inkscape:window-maximized="1"
     inkscape:current-layer="svg10" />
  <g
     fill-rule="evenodd"
     stroke-width="0.25mm"
     stroke-linecap="round"
     id="g4">
    <path
       d="M 141.956 28.7 L 140.656 29.9 L 142.456 31.5 Q 144.356 33 145.456 33.4 Q 146.437 33.645 148.052 34.592 A 28.86 28.86 0 0 1 148.806 35.05 Q 150.798 36.301 150.944 36.779 A 0.243 0.243 0 0 1 150.956 36.85 A 0.414 0.414 0 0 0 151.11 37.084 Q 151.658 37.617 154.145 38.99 A 103.26 103.26 0 0 0 155.456 39.7 Q 159.165 41.678 161.583 42.705 A 30.577 30.577 0 0 0 162.556 43.1 A 27.883 27.883 0 0 1 167.598 45.602 A 25.85 25.85 0 0 1 167.906 45.8 A 21.925 21.925 0 0 0 169.497 46.736 Q 171.263 47.686 173.847 48.772 A 93.445 93.445 0 0 0 175.506 49.45 Q 180.656 51.5 181.256 52.05 Q 181.856 52.6 185.156 53.4 Q 187.956 54.2 188.356 55.05 A 0.711 0.711 0 0 1 188.425 55.356 Q 188.425 56.059 187.057 56.969 A 10.009 10.009 0 0 1 186.856 57.1 A 6.054 6.054 0 0 1 185.929 57.514 Q 185.326 57.721 184.756 57.75 A 4.536 4.536 0 0 1 184.591 57.755 Q 183.601 57.768 181.138 57.45 A 94.318 94.318 0 0 1 180.756 57.4 A 82.484 82.484 0 0 1 175.753 56.612 Q 173.4 56.162 171.417 55.608 A 34.256 34.256 0 0 1 168.206 54.55 A 30.704 30.704 0 0 1 159.612 49.417 A 34.488 34.488 0 0 1 159.356 49.2 Q 155.756 46.1 151.506 43.5 Q 147.708 41.177 146.306 39.892 A 6.663 6.663 0 0 1 146.006 39.6 Q 144.776 38.322 141.081 36.463 A 58.898 58.898 0 0 0 140.956 36.4 L 137.156 34.5 L 133.756 37.6 Q 130.479 40.491 130.36 40.875 A 0.087 0.087 0 0 0 130.356 40.9 A 1.092 1.092 0 0 1 130.107 41.411 Q 129.005 42.957 123.023 48.179 A 296.448 296.448 0 0 1 122.656 48.5 Q 115.007 55.155 112.884 56.384 A 6.051 6.051 0 0 1 112.856 56.4 Q 110.648 57.466 109.773 58.532 A 2.802 2.802 0 0 0 109.356 59.2 A 2.486 2.486 0 0 1 108.857 59.876 Q 107.952 60.797 105.691 61.96 A 36.809 36.809 0 0 1 104.806 62.4 A 37.459 37.459 0 0 1 102.033 63.607 Q 100.68 64.127 99.461 64.45 A 17.515 17.515 0 0 1 97.856 64.8 A 71.058 71.058 0 0 0 96.849 64.98 Q 94.876 65.35 94.372 65.592 A 1.129 1.129 0 0 0 94.356 65.6 A 1.177 1.177 0 0 1 94.253 65.646 Q 93.768 65.833 93.756 65.231 A 1.556 1.556 0 0 1 93.756 65.2 A 1.302 1.302 0 0 1 93.921 64.612 Q 94.321 63.837 95.681 62.734 A 19.674 19.674 0 0 1 96.106 62.4 A 27.337 27.337 0 0 1 98.072 61.036 Q 99.174 60.336 100.487 59.622 A 57.399 57.399 0 0 1 102.256 58.7 A 59.353 59.353 0 0 0 106.1 56.649 Q 108.399 55.306 110.256 53.9 Q 113.295 51.598 119.641 45.903 A 493.771 493.771 0 0 0 120.756 44.9 Q 124.906 41.244 127.591 38.613 A 95.395 95.395 0 0 0 127.656 38.55 Q 129.723 36.521 130.969 35.196 A 42.889 42.889 0 0 0 131.656 34.45 A 44.887 44.887 0 0 0 131.938 34.132 Q 132.936 32.997 132.857 32.901 A 0.021 0.021 0 0 0 132.856 32.9 A 2.229 2.229 0 0 0 132.611 32.751 Q 132.009 32.421 130.218 31.628 A 162.527 162.527 0 0 0 129.356 31.25 Q 126.601 30.051 125.9 29.917 A 0.802 0.802 0 0 0 125.756 29.9 A 1.456 1.456 0 0 1 125.364 29.834 Q 124.595 29.612 123.056 28.65 A 6.568 6.568 0 0 0 119.505 27.642 A 7.962 7.962 0 0 0 118.556 27.7 A 11.848 11.848 0 0 1 117.809 27.732 Q 116.584 27.744 115.565 27.48 A 5.692 5.692 0 0 1 112.456 25.5 A 1.902 1.902 0 0 1 112.27 25.268 Q 111.581 24.236 113.753 23.692 A 9.987 9.987 0 0 1 114.156 23.6 A 17.025 17.025 0 0 0 115.195 23.436 A 20.806 20.806 0 0 0 115.856 23.3 Q 118.456 23 122.856 21.8 A 199.986 199.986 0 0 1 134.434 18.805 A 145.94 145.94 0 0 1 145.056 16.8 Q 151.325 15.801 152.971 17.608 A 2.157 2.157 0 0 1 153.256 18 A 1.764 1.764 0 0 1 153.462 18.393 Q 153.974 19.793 151.271 21.192 A 12.532 12.532 0 0 1 151.256 21.2 Q 149.156 22.4 148.706 23.5 Q 148.27 24.565 145.911 26.006 A 23.138 23.138 0 0 1 145.756 26.1 A 50.409 50.409 0 0 0 144.31 26.998 Q 142.849 27.944 141.956 28.7 Z M 243.456 43.6 L 246.456 46.5 L 244.456 48.6 A 24.4 24.4 0 0 1 243.81 49.224 Q 242.274 50.651 241.856 50.4 A 0.445 0.445 0 0 0 241.603 50.324 Q 241.017 50.324 240.006 51.7 A 12.785 12.785 0 0 0 239.555 52.352 Q 238.776 53.562 238.856 54.2 Q 239.156 55.2 238.656 55.5 Q 238.156 55.8 238.456 56 A 0.624 0.624 0 0 0 238.793 56.272 Q 239.438 56.515 241.056 56 A 16.016 16.016 0 0 0 244.541 54.428 A 14.764 14.764 0 0 0 245.056 54.1 Q 247.202 52.579 248.709 51.619 A 45.779 45.779 0 0 1 249.056 51.4 Q 250.319 50.61 250.928 49.976 A 3.254 3.254 0 0 0 251.206 49.65 A 1.526 1.526 0 0 1 251.46 49.375 Q 251.941 48.976 252.606 49.25 A 1.366 1.366 0 0 0 252.779 49.309 Q 253.406 49.473 253.689 48.79 A 2.015 2.015 0 0 0 253.756 48.6 A 2.629 2.629 0 0 1 253.867 48.251 Q 254.023 47.866 254.269 47.714 A 0.652 0.652 0 0 1 254.406 47.65 Q 254.856 47.5 255.106 48.25 Q 255.356 49 256.556 49 A 3.792 3.792 0 0 1 258.057 49.325 Q 258.726 49.611 259.406 50.15 A 6.824 6.824 0 0 1 260.023 50.698 Q 260.856 51.542 260.856 52.3 A 3.132 3.132 0 0 1 259.4 54.961 Q 258.799 55.387 257.949 55.71 A 11.892 11.892 0 0 1 256.256 56.2 Q 249.942 57.463 241.431 64.665 A 86.44 86.44 0 0 0 239.556 66.3 Q 233.941 71.153 233.941 71.66 A 0.054 0.054 0 0 0 233.956 71.7 A 0.119 0.119 0 0 0 234.029 71.737 Q 234.695 71.888 240.906 70.6 Q 246.747 69.388 249.331 68.626 A 21.948 21.948 0 0 0 250.056 68.4 A 1.109 1.109 0 0 0 250.442 68.187 Q 250.891 67.792 250.706 66.9 A 3.304 3.304 0 0 1 250.657 66.6 Q 250.606 66.155 250.706 65.814 A 1.285 1.285 0 0 1 251.156 65.15 A 1.61 1.61 0 0 0 251.646 64.477 Q 251.757 64.205 251.81 63.862 A 4.423 4.423 0 0 0 251.856 63.2 Q 251.856 60.569 254.514 61.071 A 5.933 5.933 0 0 1 254.656 61.1 Q 257.056 61.5 258.356 65.7 A 33.276 33.276 0 0 0 259.005 67.659 Q 260.199 70.893 261.456 71.6 Q 262.356 72.3 262.356 75.2 Q 262.356 77.069 262.19 77.815 A 1.719 1.719 0 0 1 262.106 78.1 A 1.456 1.456 0 0 1 261.913 78.414 Q 261.539 78.901 260.572 79.675 A 24.344 24.344 0 0 1 260.156 80 Q 257.908 81.686 257.239 81.486 A 0.382 0.382 0 0 1 257.156 81.45 Q 256.642 81.151 254.664 79.35 A 139.464 139.464 0 0 1 253.956 78.7 A 28.236 28.236 0 0 1 253.315 78.082 Q 252.384 77.152 252.069 76.616 A 1.947 1.947 0 0 1 252.006 76.5 Q 251.656 75.8 251.456 73.8 A 42.166 42.166 0 0 0 251.452 73.209 Q 251.424 71.263 251.206 71 Q 250.986 70.737 247.879 71.782 A 81.684 81.684 0 0 0 246.956 72.1 Q 237.605 75.595 233.696 76.502 A 21.883 21.883 0 0 1 233.256 76.6 A 8.161 8.161 0 0 0 232.125 76.885 Q 230.917 77.271 229.246 78.091 A 43.919 43.919 0 0 0 228.056 78.7 Q 223.856 80.8 223.756 79.4 A 2.204 2.204 0 0 1 223.772 79.14 Q 223.787 79.013 223.816 78.873 A 4.231 4.231 0 0 1 223.856 78.7 Q 224.384 77.203 222.587 75.009 A 13.669 13.669 0 0 0 222.056 74.4 Q 221.315 73.659 221.315 73.001 A 1.174 1.174 0 0 1 221.406 72.55 Q 221.756 71.7 223.756 70.5 Q 227.356 67.9 231.006 65.2 Q 234.656 62.5 234.656 62.1 A 0.369 0.369 0 0 0 234.467 61.784 Q 234.189 61.6 233.504 61.557 A 6.205 6.205 0 0 0 233.356 61.55 A 9.797 9.797 0 0 0 232.979 61.543 Q 232.335 61.543 231.633 61.624 A 15.062 15.062 0 0 0 230.506 61.8 Q 228.956 62.1 228.656 62.5 A 2.894 2.894 0 0 1 228.227 62.898 Q 227.732 63.281 226.906 63.678 A 15.194 15.194 0 0 1 226.306 63.95 Q 224.595 64.683 224.222 64.461 A 0.238 0.238 0 0 1 224.206 64.45 A 0.267 0.267 0 0 1 224.11 64.312 Q 223.99 63.952 224.406 62.895 A 11.964 11.964 0 0 1 224.506 62.65 A 7.702 7.702 0 0 0 224.696 62.152 Q 225.087 61 224.756 60.501 A 0.965 0.965 0 0 0 224.756 60.5 A 1.569 1.569 0 0 1 224.502 60.04 Q 224.197 59.243 224.091 57.49 A 28.427 28.427 0 0 1 224.056 56.7 Q 223.924 55.52 224.309 54.899 A 1.33 1.33 0 0 1 224.856 54.4 A 3.884 3.884 0 0 0 225.379 54.063 Q 226.617 53.154 229.604 50.249 A 167.708 167.708 0 0 0 229.706 50.15 A 40.588 40.588 0 0 0 231.383 48.425 Q 232.887 46.774 233.625 45.494 A 6.086 6.086 0 0 0 234.206 44.2 Q 234.856 42 235.956 41.1 A 2.874 2.874 0 0 1 236.964 40.402 Q 239.379 39.442 243.456 43.6 Z M 28.956 38 L 27.156 42.7 Q 26.656 43.7 30.356 42.9 Q 31.356 42.7 32.756 42.3 A 43.768 43.768 0 0 1 35.359 41.688 Q 40.947 40.564 43.987 41.744 A 6.637 6.637 0 0 1 44.356 41.9 A 3.047 3.047 0 0 1 44.736 42.11 Q 45.819 42.825 44.776 43.883 A 3.814 3.814 0 0 1 44.656 44 Q 43.456 45 38.856 45.05 Q 34.256 45.1 30.006 46.5 A 79.296 79.296 0 0 0 28.537 46.999 Q 25.624 48.022 25.056 48.55 Q 24.356 49.2 23.356 53.7 A 162.546 162.546 0 0 1 22.778 56.144 Q 21.83 60.016 21.149 61.768 A 8.422 8.422 0 0 1 20.806 62.55 A 8.908 8.908 0 0 1 20.172 63.572 Q 19.033 65.195 16.511 67.825 A 95.046 95.046 0 0 1 15.956 68.4 Q 11.256 73 9.256 73.25 Q 7.425 73.479 7.019 73.414 A 0.402 0.402 0 0 1 6.956 73.4 A 0.57 0.57 0 0 1 6.864 73.128 Q 6.809 72.488 7.856 71.2 Q 9.156 69.6 10.556 68.8 Q 11.983 67.916 13.687 66.409 A 44.033 44.033 0 0 0 15.356 64.85 Q 18.056 62.2 18.856 60.4 A 9.308 9.308 0 0 0 19.292 59.351 Q 19.708 58.174 20.095 56.387 A 49.77 49.77 0 0 0 20.356 55.1 A 49.754 49.754 0 0 0 20.529 54.134 Q 20.994 51.379 20.664 51.009 A 0.215 0.215 0 0 0 20.656 51 A 0.147 0.147 0 0 0 20.579 50.965 Q 20.088 50.865 17.163 52.075 A 87.525 87.525 0 0 0 16.156 52.5 Q 11.856 54.4 9.206 54.85 Q 6.682 55.279 4.022 54.664 A 15.278 15.278 0 0 1 3.756 54.6 Q 2.356 54.2 1.556 54 Q 0.756 53.8 0.356 53.5 A 1.695 1.695 0 0 1 0.209 53.378 Q 0 53.181 0 53.006 A 0.286 0.286 0 0 1 0.006 52.95 A 1.241 1.241 0 0 1 0.045 52.806 Q 0.121 52.577 0.313 52.186 A 12.509 12.509 0 0 1 0.356 52.1 Q 0.705 51.751 6.551 49.683 A 438.209 438.209 0 0 1 8.356 49.05 Q 14.842 46.788 19.144 45.51 A 109.376 109.376 0 0 1 20.556 45.1 A 11.816 11.816 0 0 0 21.517 44.869 Q 23.14 44.4 23.456 43.65 Q 23.856 42.7 24.656 38.65 Q 25.425 34.756 25.269 34.329 A 0.135 0.135 0 0 0 25.256 34.3 A 0.442 0.442 0 0 0 25.146 34.265 Q 24.669 34.17 22.974 34.481 A 39.757 39.757 0 0 0 22.356 34.6 A 63.644 63.644 0 0 1 20.196 35.043 Q 13.96 36.203 12.156 35 A 8.584 8.584 0 0 1 11.714 34.711 Q 11.034 34.232 10.893 33.878 A 0.479 0.479 0 0 1 10.856 33.7 Q 10.856 33.249 13.215 32.595 A 32.07 32.07 0 0 1 13.756 32.45 A 72.86 72.86 0 0 0 15.446 31.987 Q 18.44 31.134 23.906 29.4 A 1203.996 1203.996 0 0 1 26.841 28.473 Q 31.659 26.958 33.456 26.45 A 25.27 25.27 0 0 1 34.391 26.204 Q 35.897 25.84 36.679 25.894 A 2.468 2.468 0 0 1 36.756 25.9 A 29.824 29.824 0 0 1 37.866 26.129 Q 39.584 26.519 40.286 26.95 A 1.515 1.515 0 0 1 40.606 27.2 Q 41.256 27.9 39.856 29.4 A 3.646 3.646 0 0 1 39.031 30.096 Q 38.11 30.686 36.532 31.162 A 22.785 22.785 0 0 1 35.056 31.55 A 35.712 35.712 0 0 0 33.782 31.865 Q 31.271 32.541 30.906 33.15 A 4.68 4.68 0 0 0 30.7 33.549 Q 30.174 34.669 28.956 38 Z M 74.599 20.094 A 8.063 8.063 0 0 0 73.756 20.9 A 81.625 81.625 0 0 0 73.011 21.788 Q 72.249 22.711 71.74 23.394 A 17.889 17.889 0 0 0 71.306 24 Q 70.708 24.877 67.856 25.404 A 29.281 29.281 0 0 1 66.256 25.65 A 40.159 40.159 0 0 0 62.433 26.319 A 30.019 30.019 0 0 0 58.606 27.45 A 29.497 29.497 0 0 1 56.845 28.048 Q 55.758 28.377 54.789 28.563 A 13.148 13.148 0 0 1 52.856 28.8 Q 51.168 28.87 50.321 29.287 A 1.785 1.785 0 0 0 49.756 29.7 Q 49.372 30.237 49.4 30.539 A 0.344 0.344 0 0 0 49.456 30.7 Q 49.618 30.944 50.573 31.65 A 36.538 36.538 0 0 0 51.056 32 Q 53.056 33.2 53.806 34.75 A 6.207 6.207 0 0 1 54.113 35.528 Q 54.621 37.089 54.856 39.9 Q 55.256 45 54.856 58.8 A 571.055 571.055 0 0 0 54.729 63.43 Q 54.368 79.038 55.156 86.3 Q 55.356 88.9 55.606 90.3 Q 55.856 91.7 56.056 92.55 A 6.354 6.354 0 0 0 56.103 92.74 Q 56.233 93.226 56.384 93.431 A 0.433 0.433 0 0 0 56.506 93.55 Q 56.713 93.675 57.094 93.627 A 2.286 2.286 0 0 0 57.256 93.6 A 0.464 0.464 0 0 0 57.474 93.364 Q 57.873 92.563 57.506 89.3 Q 57.056 85.3 57.706 76.75 A 858.044 858.044 0 0 0 57.786 75.678 Q 58.242 69.59 58.333 67.114 A 28.65 28.65 0 0 0 58.356 66.1 Q 58.356 63.5 58.906 57.95 A 170.269 170.269 0 0 1 59.045 56.599 Q 59.495 52.4 59.756 52.4 A 0.533 0.533 0 0 1 60.121 52.542 A 0.819 0.819 0 0 1 60.256 52.7 A 0.871 0.871 0 0 0 60.282 52.752 Q 60.88 53.863 66.056 56.5 A 29.032 29.032 0 0 1 66.154 56.549 Q 67.634 57.297 69.624 58.509 A 100.101 100.101 0 0 1 71.606 59.75 A 112.114 112.114 0 0 1 71.716 59.821 Q 74.975 61.918 76.156 63 Q 76.91 63.839 77.946 63.622 A 2.65 2.65 0 0 0 78.356 63.5 Q 79.981 62.931 81.275 58.204 A 44.196 44.196 0 0 0 81.856 55.8 A 15.77 15.77 0 0 0 81.941 55.407 Q 82.279 53.753 82.145 52.506 A 5.206 5.206 0 0 0 81.956 51.55 A 5.389 5.389 0 0 0 81.944 51.512 Q 81.596 50.393 80.654 49.069 A 17.93 17.93 0 0 0 79.656 47.8 A 31.902 31.902 0 0 1 79.032 47.159 A 28.201 28.201 0 0 1 76.656 44.3 A 7.317 7.317 0 0 0 73.977 42.024 Q 71.581 40.8 67.856 40.8 A 29.122 29.122 0 0 1 67.137 40.792 Q 65.156 40.743 65.156 40.4 Q 65.156 39.42 68.721 35.708 A 102.92 102.92 0 0 1 70.506 33.9 A 128.611 128.611 0 0 1 71.859 32.578 Q 75.065 29.494 76.942 28.182 A 9.143 9.143 0 0 1 78.056 27.5 A 14.536 14.536 0 0 0 79.04 26.963 Q 80.923 25.831 81.206 24.7 A 1.799 1.799 0 0 0 81.212 24.671 Q 81.469 23.571 80.415 21.861 A 12.828 12.828 0 0 0 79.756 20.9 Q 77.327 17.865 74.599 20.094 Z M 282.556 32.7 L 280.456 34.5 L 274.456 33.8 A 100.941 100.941 0 0 0 270.949 33.378 Q 266.806 32.958 263.995 33.091 A 22.917 22.917 0 0 0 263.106 33.15 A 42.766 42.766 0 0 0 260.881 33.416 Q 256.102 34.091 245.556 36.2 Q 239.456 37.4 233.206 39 Q 226.956 40.6 220.156 41.6 A 145.294 145.294 0 0 0 217.092 42.009 Q 211.049 42.888 210.156 43.7 Q 209.756 44 208.056 43.15 A 36.284 36.284 0 0 1 207.12 42.661 Q 205.109 41.578 200.656 39 A 20.313 20.313 0 0 1 199.585 38.266 Q 196.766 36.187 197.769 34.994 A 1.491 1.491 0 0 1 197.856 34.9 Q 198.379 34.377 212.451 34.31 A 931.258 931.258 0 0 1 216.856 34.3 A 1614.128 1614.128 0 0 0 222.22 34.251 Q 230.967 34.156 233.942 34.001 A 45.744 45.744 0 0 0 233.956 34 Q 236.568 33.863 239.984 33.347 A 110.644 110.644 0 0 0 243.256 32.8 L 257.356 30.4 Q 263.371 29.445 264.6 29.037 A 2.585 2.585 0 0 0 264.706 29 A 2.826 2.826 0 0 1 265.201 28.873 Q 266.431 28.653 269.514 28.728 A 84.352 84.352 0 0 1 270.256 28.75 Q 274.756 28.9 279.756 28.9 A 40.81 40.81 0 0 1 281.22 28.924 Q 284.148 29.03 284.556 29.6 A 0.462 0.462 0 0 1 284.639 29.859 Q 284.666 30.663 282.609 32.649 A 27.768 27.768 0 0 1 282.556 32.7 Z M 139.756 50.5 L 142.856 53.3 L 146.656 53.3 Q 149.264 53.107 149.866 53.24 A 0.855 0.855 0 0 1 149.906 53.25 A 0.914 0.914 0 0 1 150.257 53.447 Q 150.618 53.757 150.956 54.5 A 3.161 3.161 0 0 1 151.051 54.954 Q 151.197 56.058 150.406 56.85 Q 149.488 57.767 146.565 58.825 A 36.275 36.275 0 0 1 146.356 58.9 L 143.256 60.1 L 142.856 62.6 Q 142.556 65.1 142.256 66.8 L 141.856 68.4 L 148.256 68.4 A 161.833 161.833 0 0 1 149.246 68.395 Q 160.353 68.371 162.131 69.978 A 1.501 1.501 0 0 1 162.156 70 A 1.323 1.323 0 0 1 162.399 70.358 Q 162.926 71.536 160.301 73.209 A 17.774 17.774 0 0 1 159.656 73.6 L 157.156 75 L 151.356 74.3 A 82.909 82.909 0 0 0 148.699 74.056 Q 144.931 73.775 142.456 74 Q 140.153 74.276 135.264 75.358 A 235.787 235.787 0 0 0 134.406 75.55 Q 129.475 76.661 128.372 77.179 A 1.429 1.429 0 0 0 128.156 77.3 Q 127.821 77.384 126.504 76.942 A 25.864 25.864 0 0 1 125.956 76.75 Q 124.156 76.1 122.856 75.2 Q 121.056 73.9 123.756 73.1 A 14.086 14.086 0 0 1 124.6 72.851 Q 125.641 72.575 127.156 72.3 L 131.656 71.4 L 131.356 69.8 Q 131.26 68.368 131.256 66.026 A 121.622 121.622 0 0 1 131.256 65.8 L 131.256 63.3 L 129.156 63.3 A 10.087 10.087 0 0 1 126.102 62.859 A 8.079 8.079 0 0 1 122.556 60.6 A 3.086 3.086 0 0 1 122.318 60.271 Q 121.771 59.385 122.406 58.75 Q 123.156 58 126.256 57.7 A 32.806 32.806 0 0 0 127.441 57.575 Q 129.334 57.338 130.156 56.955 A 1.894 1.894 0 0 0 130.506 56.75 A 1.554 1.554 0 0 0 130.945 56.182 Q 131.356 55.338 131.356 53.6 Q 131.356 51.8 131.656 51.1 Q 131.956 50.4 133.156 49 A 16.721 16.721 0 0 1 133.825 48.43 Q 135.059 47.438 135.676 47.438 A 0.658 0.658 0 0 1 135.806 47.45 A 1.462 1.462 0 0 1 136.202 47.619 Q 137.12 48.136 139.385 50.166 A 88.018 88.018 0 0 1 139.756 50.5 Z M 59.456 42.3 L 59.156 50.7 L 60.956 51.6 Q 62.956 52.4 65.456 53.1 A 95.588 95.588 0 0 1 67.443 53.681 Q 68.318 53.947 69.271 54.252 A 169.326 169.326 0 0 1 71.256 54.9 Q 74.056 55.9 74.656 55.5 A 0.755 0.755 0 0 0 74.9 55.172 Q 75.243 54.412 75.255 52.161 A 30.955 30.955 0 0 0 75.256 52 A 7.535 7.535 0 0 0 74.299 48.362 A 9.904 9.904 0 0 0 73.556 47.2 Q 72.456 45.7 71.706 45.25 A 3.047 3.047 0 0 0 71.243 45.032 Q 70.472 44.733 68.983 44.459 A 32.214 32.214 0 0 0 68.656 44.4 Q 66.469 44.01 65.35 43.406 A 3.52 3.52 0 0 1 64.806 43.05 A 3.153 3.153 0 0 1 64.125 42.257 Q 63.65 41.496 63.346 40.285 A 12.198 12.198 0 0 1 63.256 39.9 Q 62.856 38.4 63.056 37.65 Q 63.217 37.046 64.352 35.175 A 69.949 69.949 0 0 1 64.956 34.2 A 127.903 127.903 0 0 0 65.495 33.302 Q 66.881 30.968 67.176 30.201 A 0.979 0.979 0 0 0 67.256 29.901 A 2.382 2.382 0 0 0 67.248 29.696 Q 67.179 28.902 66.513 29.7 A 4.94 4.94 0 0 0 66.356 29.9 A 2.43 2.43 0 0 1 65.825 30.289 Q 65.256 30.61 64.328 30.848 A 12.864 12.864 0 0 1 63.656 31 Q 61.156 31.4 60.456 33.2 A 6.637 6.637 0 0 0 60.171 34.239 Q 59.806 36.02 59.583 39.748 A 136.867 136.867 0 0 0 59.456 42.3 Z M 39.256 2.7 L 41.256 0 L 43.456 0.7 Q 45.556 1.4 47.306 2.8 Q 48.716 3.928 48.99 4.926 A 1.785 1.785 0 0 1 49.056 5.4 Q 49.056 6.081 46.831 8.466 A 47.385 47.385 0 0 1 46.706 8.6 A 36.276 36.276 0 0 1 45.872 9.46 Q 44.538 10.788 43.751 11.226 A 2.034 2.034 0 0 1 43.356 11.4 A 2.292 2.292 0 0 0 42.793 11.67 Q 41.463 12.492 38.356 15.6 Q 28.875 24.791 27.63 25.09 A 0.323 0.323 0 0 1 27.556 25.1 A 0.789 0.789 0 0 1 27.162 25.011 Q 26.314 24.53 27.776 21.458 A 29.325 29.325 0 0 1 28.256 20.5 A 44.265 44.265 0 0 1 29.308 18.301 Q 30.413 16.158 31.473 14.804 A 12.817 12.817 0 0 1 31.556 14.7 A 14.629 14.629 0 0 0 32.338 13.774 Q 33.154 12.733 34.167 11.162 A 65.562 65.562 0 0 0 34.806 10.15 Q 36.696 7.096 37.13 6.157 A 4.36 4.36 0 0 0 37.156 6.1 A 3.661 3.661 0 0 1 37.359 5.63 Q 37.849 4.653 39.256 2.7 Z M 232.785 13.582 A 5.86 5.86 0 0 0 232.756 14.2 A 4.71 4.71 0 0 0 232.757 14.295 Q 232.784 15.659 233.588 18.335 A 54.828 54.828 0 0 0 234.206 20.25 Q 235.656 24.5 236.956 26.5 Q 238.056 28.2 239.356 28.7 A 3.154 3.154 0 0 0 239.439 28.731 Q 240.678 29.168 241.356 28.2 Q 241.731 27.638 242.379 27.231 A 5.087 5.087 0 0 1 243.256 26.8 Q 244.118 26.297 244.981 25.018 A 13.917 13.917 0 0 0 245.656 23.9 A 13.071 13.071 0 0 0 245.735 23.752 Q 246.644 22.033 246.615 20.815 A 2.774 2.774 0 0 0 246.556 20.3 Q 246.256 18.9 247.156 18 A 101.847 101.847 0 0 0 247.233 17.861 Q 247.552 17.283 247.737 16.931 A 13.986 13.986 0 0 0 247.856 16.7 A 0.633 0.633 0 0 0 247.855 16.663 Q 247.824 16.132 246.856 17.1 Q 246.256 17.5 245.856 17.5 A 0.666 0.666 0 0 1 245.749 17.492 Q 245.533 17.457 245.45 17.27 A 0.602 0.602 0 0 1 245.406 17.1 A 0.736 0.736 0 0 1 245.4 17.009 Q 245.4 16.633 245.756 16.1 Q 245.756 15.3 239.256 14.2 A 5.065 5.065 0 0 1 239.199 14.185 Q 238.386 13.972 236.456 13.2 Q 234.478 12.211 233.672 12.273 A 0.918 0.918 0 0 0 233.506 12.3 A 0.755 0.755 0 0 0 233.06 12.643 Q 232.851 12.969 232.785 13.582 Z M 35.506 58.3 A 18.798 18.798 0 0 0 34.379 57.643 Q 31.907 56.324 30.756 56.9 Q 30.356 57.2 30.506 57.95 A 4.379 4.379 0 0 0 30.604 58.328 Q 30.876 59.24 31.756 61.4 Q 33.984 66.503 36.16 68.455 A 4.908 4.908 0 0 0 37.856 69.5 Q 38.812 69.725 39.547 70.077 A 5.201 5.201 0 0 1 40.556 70.7 A 4.197 4.197 0 0 0 40.774 70.904 Q 41.055 71.148 41.286 71.241 A 0.721 0.721 0 0 0 41.556 71.3 Q 41.956 71.3 43.056 70.6 A 7.893 7.893 0 0 0 43.278 70.479 Q 44.973 69.521 44.973 68.341 A 1.704 1.704 0 0 0 44.956 68.1 Q 44.756 66.7 42.256 63.9 Q 38.856 60.4 35.506 58.3 Z M 134.156 27.9 L 137.256 28.9 L 138.556 27.1 A 58.084 58.084 0 0 1 139.362 26.206 Q 140.614 24.845 142.34 23.116 A 160.458 160.458 0 0 1 142.456 23 Q 142.956 22.3 143.406 21.7 Q 143.856 21.1 144.106 20.75 A 1.072 1.072 0 0 0 144.173 20.644 Q 144.323 20.371 144.158 20.203 A 0.371 0.371 0 0 0 144.156 20.2 Q 143.615 19.93 141.246 20.634 A 33.705 33.705 0 0 0 140.706 20.8 A 39.545 39.545 0 0 0 138.702 21.489 Q 137.728 21.855 136.898 22.237 A 19.74 19.74 0 0 0 135.956 22.7 A 20.888 20.888 0 0 1 132.976 23.875 A 16.693 16.693 0 0 1 130.706 24.4 Q 128.156 24.8 128.156 25.2 Q 128.156 25.794 132.478 27.325 A 95.839 95.839 0 0 0 134.156 27.9 Z M 9.112 13.591 A 12.493 12.493 0 0 0 9.156 13.9 Q 9.356 15.6 10.906 17.05 Q 12.456 18.5 14.556 19.1 Q 15.556 19.413 16.204 19.842 A 3.226 3.226 0 0 1 16.856 20.4 A 2.033 2.033 0 0 0 17.617 20.955 Q 17.997 21.111 18.456 21.111 A 2.886 2.886 0 0 0 18.706 21.1 A 2.676 2.676 0 0 0 19.115 21.035 Q 19.322 20.984 19.471 20.9 A 0.701 0.701 0 0 0 19.856 20.25 A 1.198 1.198 0 0 1 19.86 20.143 Q 19.911 19.583 20.519 19.755 A 1.739 1.739 0 0 1 20.656 19.8 A 5.828 5.828 0 0 0 20.825 19.84 Q 21.001 19.878 21.127 19.892 A 1.19 1.19 0 0 0 21.256 19.9 Q 21.556 19.8 20.856 18.7 A 4.57 4.57 0 0 1 20.824 18.635 Q 20.538 18.039 20.557 17.622 A 0.821 0.821 0 0 1 20.856 17 Q 21.004 16.703 20.932 16.379 A 1.206 1.206 0 0 0 20.856 16.15 Q 20.656 15.7 19.956 15.45 A 4.657 4.657 0 0 0 19.89 15.427 A 4.119 4.119 0 0 0 18.556 15.2 A 3.822 3.822 0 0 1 17.942 15.037 A 2.834 2.834 0 0 1 16.806 14.3 A 3.24 3.24 0 0 0 16.76 14.252 Q 16.538 14.022 16.304 13.873 A 1.649 1.649 0 0 0 15.406 13.6 A 2.07 2.07 0 0 1 15.022 13.56 Q 14.549 13.47 13.887 13.178 A 12.282 12.282 0 0 1 13.206 12.85 A 7.372 7.372 0 0 0 12.215 12.423 A 5.697 5.697 0 0 0 10.356 12.1 A 6.88 6.88 0 0 0 10.123 12.104 Q 9.563 12.123 9.312 12.238 A 0.418 0.418 0 0 0 9.156 12.35 Q 8.981 12.569 9.112 13.591 Z"
       id="path2"
       vector-effect="non-scaling-stroke" />
  </g>
  <mask
     id="mask8">
    <path
       stroke-width="6.79332638"
       stroke="red"
       d="M 6.1692973,10.823997 21.256,19.9 v 0"
       stroke-dashoffset="0"
       id="path6" />
  </mask>
</svg>
