<?xml version="1.0" encoding="UTF-8" standalone="no"?>
<svg
   xmlns:dc="http://purl.org/dc/elements/1.1/"
   xmlns:cc="http://creativecommons.org/ns#"
   xmlns:rdf="http://www.w3.org/1999/02/22-rdf-syntax-ns#"
   xmlns:svg="http://www.w3.org/2000/svg"
   xmlns="http://www.w3.org/2000/svg"
   xmlns:sodipodi="http://sodipodi.sourceforge.net/DTD/sodipodi-0.dtd"
   xmlns:inkscape="http://www.inkscape.org/namespaces/inkscape"
   width="284.639"
   height="93.64"
   viewBox="0 0 284.639 93.64"
   version="1.1"
   id="svg10"
   sodipodi:docname="stroke7.svg"
   inkscape:version="0.92.5 (2060ec1f9f, 2020-04-08)">
  <metadata
     id="metadata16">
    <rdf:RDF>
      <cc:Work
         rdf:about="">
        <dc:format>image/svg+xml</dc:format>
        <dc:type
           rdf:resource="http://purl.org/dc/dcmitype/StillImage" />
        <dc:title />
      </cc:Work>
    </rdf:RDF>
  </metadata>
  <defs
     id="defs14" />
  <sodipodi:namedview
     pagecolor="#ffffff"
     bordercolor="#666666"
     borderopacity="1"
     objecttolerance="10"
     gridtolerance="10"
     guidetolerance="10"
     inkscape:pageopacity="0"
     inkscape:pageshadow="2"
     inkscape:window-width="1920"
     inkscape:window-height="1034"
     id="namedview12"
     showgrid="false"
     inkscape:zoom="8"
     inkscape:cx="56.501065"
     inkscape:cy="53.610567"
     inkscape:window-x="0"
     inkscape:window-y="0"
     inkscape:window-maximized="1"
     inkscape:current-layer="svg10" />
  <g
     id="g4"
     stroke-linecap="round"
     stroke-width="0.25mm"
     fill-rule="evenodd">
    <path
       d="m 74.599,20.094 c -0.300088,0.247964 -0.581825,0.517336 -0.843,0.806 -0.250432,0.294233 -0.498772,0.59024 -0.745,0.888 -0.508,0.615333 -0.931667,1.150667 -1.271,1.606 -0.14886,0.198964 -0.293558,0.401008 -0.434,0.606 -0.398667,0.584667 -1.548667,1.052667 -3.45,1.404 -0.530964,0.09673 -1.064501,0.178761 -1.6,0.246 -1.284371,0.161256 -2.560193,0.384517 -3.823,0.669 -1.299341,0.291697 -2.577832,0.669532 -3.827,1.131 -0.580569,0.217793 -1.16786,0.417226 -1.761,0.598 -0.724667,0.219333 -1.41,0.391 -2.056,0.515 -0.637589,0.126676 -1.283694,0.205893 -1.933,0.237 -1.125333,0.04667 -1.970333,0.209 -2.535,0.487 -0.21374,0.09904 -0.405764,0.2394 -0.565,0.413 -0.256,0.358 -0.374667,0.637667 -0.356,0.839 0.0049,0.05751 0.02412,0.112881 0.056,0.161 0.108,0.162667 0.480333,0.479333 1.117,0.95 0.160045,0.117979 0.32105,0.234649 0.483,0.35 1.333333,0.8 2.25,1.716667 2.75,2.75 0.119709,0.252136 0.222275,0.512059 0.307,0.778 0.338667,1.040667 0.586333,2.498 0.743,4.372 0.266667,3.4 0.266667,9.7 0,18.9 -0.04859,1.543155 -0.09093,3.086501 -0.127,4.63 -0.240667,10.405333 -0.09833,18.028667 0.427,22.87 0.133333,1.733333 0.283333,3.066667 0.45,4 0.166667,0.933333 0.316667,1.683333 0.45,2.25 0.01469,0.06357 0.03036,0.126912 0.047,0.19 0.08667,0.324 0.180333,0.554333 0.281,0.691 0.03238,0.04736 0.07385,0.08781 0.122,0.119 0.138,0.08333 0.334,0.109 0.588,0.077 0.05431,-0.0071 0.108341,-0.01606 0.162,-0.027 0.09845,-0.0502 0.175756,-0.133883 0.218,-0.236 0.266,-0.534 0.276667,-1.888667 0.032,-4.064 -0.3,-2.666667 -0.233333,-6.85 0.2,-12.55 l 0.08,-1.072 c 0.304,-4.058667 0.486333,-6.913333 0.547,-8.564 0.01365,-0.337838 0.02132,-0.675891 0.023,-1.014 0,-1.733333 0.183333,-4.45 0.55,-8.15 0.04454,-0.450516 0.09087,-0.900853 0.139,-1.351 0.3,-2.799333 0.537,-4.199 0.711,-4.199 0.135278,-7.02e-4 0.265762,0.05006 0.365,0.142 0.05153,0.04672 0.09689,0.09981 0.135,0.158 0.0081,0.01762 0.01676,0.03496 0.026,0.052 0.398667,0.740667 2.323333,1.99 5.774,3.748 0.0327,0.01627 0.06536,0.0326 0.098,0.049 0.986667,0.498667 2.143333,1.152 3.47,1.96 0.665476,0.405935 1.326188,0.81963 1.982,1.241 l 0.11,0.071 c 2.172667,1.398 3.652667,2.457667 4.44,3.179 0.502667,0.559333 1.099333,0.766667 1.79,0.622 0.139731,-0.02955 0.276844,-0.07035 0.41,-0.122 1.083333,-0.379333 2.056333,-2.144667 2.919,-5.296 0.216054,-0.795757 0.409797,-1.597404 0.581,-2.404 0.03,-0.130633 0.05834,-0.261644 0.085,-0.393 0.225333,-1.102667 0.293333,-2.069667 0.204,-2.901 -0.03297,-0.323875 -0.09625,-0.643944 -0.189,-0.956 -0.004,-0.01268 -0.008,-0.02535 -0.012,-0.038 -0.232,-0.746 -0.662,-1.560333 -1.29,-2.443 C 80.340555,48.63123 80.007551,48.207801 79.656,47.8 79.445014,47.58926 79.236994,47.375573 79.032,47.159 78.177982,46.259294 77.384258,45.30422 76.656,44.3 75.961217,43.334908 75.041682,42.553697 73.977,42.024 72.379667,41.208 70.339333,40.8 67.856,40.8 c -0.23969,2.92e-4 -0.479375,-0.0024 -0.719,-0.008 -1.320667,-0.03267 -1.981,-0.163333 -1.981,-0.392 0,-0.653333 1.188333,-2.217333 3.565,-4.692 0.587538,-0.609988 1.182584,-1.212701 1.785,-1.808 0.447753,-0.443977 0.898765,-0.884656 1.353,-1.322 2.137333,-2.056 3.831667,-3.521333 5.083,-4.396 0.354599,-0.253601 0.726882,-0.481516 1.114,-0.682 0.334783,-0.166281 0.663027,-0.345414 0.984,-0.537 1.255333,-0.754667 1.977333,-1.509 2.166,-2.263 0.0021,-0.0097 0.0041,-0.01932 0.006,-0.029 0.171333,-0.733333 -0.09433,-1.67 -0.797,-2.81 C 80.210003,21.53085 79.99011,21.210186 79.756,20.9 78.136667,18.876667 76.417667,18.608 74.599,20.094 Z M 59.456,42.3 l -0.3,8.4 1.8,0.9 c 1.333333,0.533333 2.833333,1.033333 4.5,1.5 0.664411,0.186489 1.326783,0.380167 1.987,0.581 0.583333,0.177333 1.192667,0.367667 1.828,0.571 0.662992,0.211918 1.324671,0.427922 1.985,0.648 1.866667,0.666667 3,0.866667 3.4,0.6 0.109949,-0.08481 0.194377,-0.198309 0.244,-0.328 0.228667,-0.506667 0.347,-1.510333 0.355,-3.011 4.73e-4,-0.05367 8.06e-4,-0.107333 0.001,-0.161 -0.0063,-1.274073 -0.335557,-2.525745 -0.957,-3.638 -0.220363,-0.404129 -0.468631,-0.792403 -0.743,-1.162 -0.733333,-1 -1.35,-1.65 -1.85,-1.95 -0.147947,-0.08552 -0.302827,-0.158445 -0.463,-0.218 -0.514,-0.199333 -1.267333,-0.390333 -2.26,-0.573 -0.108898,-0.02023 -0.217899,-0.0399 -0.327,-0.059 -1.458,-0.26 -2.56,-0.591333 -3.306,-0.994 -0.191927,-0.101631 -0.374037,-0.220806 -0.544,-0.356 -0.26954,-0.224603 -0.499702,-0.492618 -0.681,-0.793 -0.316667,-0.507333 -0.576333,-1.164667 -0.779,-1.972 -0.03208,-0.127839 -0.06208,-0.256189 -0.09,-0.385 -0.266667,-1 -0.333333,-1.75 -0.2,-2.25 0.107333,-0.402667 0.539333,-1.227667 1.296,-2.475 0.198665,-0.326645 0.400006,-0.651656 0.604,-0.975 0.180891,-0.298596 0.36056,-0.597932 0.539,-0.898 0.924,-1.556 1.484333,-2.589667 1.681,-3.101 0.04246,-0.09511 0.06946,-0.196381 0.08,-0.3 2.79e-4,-0.06842 -0.0024,-0.136813 -0.008,-0.205 -0.046,-0.529333 -0.291,-0.528 -0.735,0.004 -0.05404,0.06531 -0.106391,0.131997 -0.157,0.2 -0.158537,0.15315 -0.337176,0.284017 -0.531,0.389 -0.379333,0.214 -0.878333,0.400333 -1.497,0.559 -0.222603,0.05666 -0.446683,0.107342 -0.672,0.152 -1.666667,0.266667 -2.733333,1 -3.2,2.2 -0.122999,0.338038 -0.218313,0.685516 -0.285,1.039 -0.243333,1.187333 -0.439333,3.023667 -0.588,5.509 -0.05027,0.850253 -0.09261,1.700957 -0.127,2.552 z"
       id="path2"
       inkscape:connector-curvature="0"
       style="vector-effect:non-scaling-stroke"
       sodipodi:nodetypes="ccccccccccccccccccccccccscccccccccccccccccccccccccccccccccccccccsccccccccccccccccccccccccccccccccccccccccccccccccc" />
  </g>
  <mask
     id="mask8">
    <path
       stroke-width="6.79332638"
       stroke="red"
       d="M 6.1692973,10.823997 21.256,19.9 v 0"
       stroke-dashoffset="0"
       id="path6" />
  </mask>
  <path
     style="fill:none;stroke:#ff0000;stroke-width:11.98383999;stroke-linecap:butt;stroke-linejoin:miter;stroke-miterlimit:4;stroke-dasharray:none;stroke-opacity:1"
     d="m 56.817055,32.169254 0.777088,4.729976"
     id="path842"
     inkscape:connector-curvature="0" />
  <path
     style="fill:#ffffff;stroke:#ffff00;stroke-width:5.98929977;stroke-linecap:butt;stroke-linejoin:miter;stroke-miterlimit:4;stroke-dasharray:none;stroke-opacity:1"
     d="m 57.085507,35.347417 0.17042,58.254937"
     id="path844"
     inkscape:connector-curvature="0" />
  <path
     style="fill:none;stroke:#008080;stroke-width:9.30000019;stroke-linecap:butt;stroke-linejoin:miter;stroke-miterlimit:4;stroke-dasharray:none;stroke-opacity:1"
     d="m 49.541599,31.037433 19.816641,-3.603026 5.96751,-2.251891 4.166,-5.404538 -14.524698,17.902533 -0.788162,2.364485 0.900757,1.801513 2.702273,0.675567 5.17934,1.125946 3.26525,3.377836 1.68891,3.71562 1.01336,5.291944 L 78.02802,61.43796 59.156,50.7"
     id="path848"
     inkscape:connector-curvature="0" />
</svg>
