<?xml version="1.0" encoding="UTF-8" standalone="no"?>
<svg
   xmlns:dc="http://purl.org/dc/elements/1.1/"
   xmlns:cc="http://creativecommons.org/ns#"
   xmlns:rdf="http://www.w3.org/1999/02/22-rdf-syntax-ns#"
   xmlns:svg="http://www.w3.org/2000/svg"
   xmlns="http://www.w3.org/2000/svg"
   xmlns:sodipodi="http://sodipodi.sourceforge.net/DTD/sodipodi-0.dtd"
   xmlns:inkscape="http://www.inkscape.org/namespaces/inkscape"
   width="284.639"
   height="93.64"
   viewBox="0 0 284.639 93.64"
   version="1.1"
   id="svg10"
   sodipodi:docname="stroke3.svg"
   inkscape:version="0.92.5 (2060ec1f9f, 2020-04-08)">
  <metadata
     id="metadata16">
    <rdf:RDF>
      <cc:Work
         rdf:about="">
        <dc:format>image/svg+xml</dc:format>
        <dc:type
           rdf:resource="http://purl.org/dc/dcmitype/StillImage" />
      </cc:Work>
    </rdf:RDF>
  </metadata>
  <defs
     id="defs14" />
  <sodipodi:namedview
     pagecolor="#ffffff"
     bordercolor="#666666"
     borderopacity="1"
     objecttolerance="10"
     gridtolerance="10"
     guidetolerance="10"
     inkscape:pageopacity="0"
     inkscape:pageshadow="2"
     inkscape:window-width="1920"
     inkscape:window-height="1034"
     id="namedview12"
     showgrid="false"
     inkscape:zoom="8.881425"
     inkscape:cx="45.318548"
     inkscape:cy="50.885992"
     inkscape:window-x="0"
     inkscape:window-y="0"
     inkscape:window-maximized="1"
     inkscape:current-layer="svg10" />
  <g
     fill-rule="evenodd"
     stroke-width="0.25mm"
     stroke-linecap="round"
     id="g4">
    <path
       d="m 22.974,34.481 c -0.206311,0.03804 -0.412317,0.0777 -0.618,0.119 -0.717388,0.160129 -1.437496,0.307818 -2.16,0.443 -4.157333,0.773333 -6.837333,0.759 -8.04,-0.043 -0.150262,-0.09178 -0.297665,-0.188156 -0.442,-0.289 -0.453333,-0.319333 -0.727,-0.597 -0.821,-0.833 -0.02358,-0.05643 -0.03614,-0.116849 -0.037,-0.178 0,-0.300667 0.786333,-0.669 2.359,-1.105 0.179908,-0.04991 0.360248,-0.09824 0.541,-0.145 0.565169,-0.147553 1.128543,-0.301898 1.69,-0.463 1.996,-0.568667 4.816,-1.431 8.46,-2.587 0.977938,-0.31025 1.956272,-0.619251 2.935,-0.927 3.212,-1.01 5.417,-1.684333 6.615,-2.023 0.310069,-0.08796 0.621793,-0.16997 0.935,-0.246 1.004,-0.242667 1.766667,-0.346 2.288,-0.31 0.0257,0.0016 0.05137,0.0036 0.077,0.006 0.371417,0.0693 0.741484,0.145643 1.11,0.229 1.145333,0.26 1.952,0.533667 2.42,0.821 0.117402,0.0686 0.225036,0.152684 0.32,0.25 0.433333,0.466667 0.183333,1.2 -0.75,2.2 -0.238946,0.271646 -0.516992,0.506216 -0.825,0.696 -0.614,0.393333 -1.447,0.748667 -2.499,1.066 -0.487529,0.145779 -0.979805,0.275185 -1.476,0.388 -0.42656,0.09719 -0.851299,0.202205 -1.274,0.315 z"
       id="path2"
       inkscape:connector-curvature="0"
       style="vector-effect:non-scaling-stroke"
       sodipodi:nodetypes="ccccccccccccccccccccccccc" />
  </g>
  <mask
     id="mask8">
    <path
       stroke-width="6.79332638"
       stroke="red"
       d="M 6.1692973,10.823997 21.256,19.9 v 0"
       stroke-dashoffset="0"
       id="path6" />
  </mask>
  <path
     style="fill:none;stroke:#ffff00;stroke-width:6.6;stroke-linecap:butt;stroke-linejoin:miter;stroke-opacity:1;stroke-miterlimit:4;stroke-dasharray:none"
     d="M 10.809076,34.077485 40.64663,27.096624"
     id="path815"
     inkscape:connector-curvature="0" />
</svg>
