<?xml version="1.0" encoding="UTF-8" standalone="no"?>
<svg
   xmlns:dc="http://purl.org/dc/elements/1.1/"
   xmlns:cc="http://creativecommons.org/ns#"
   xmlns:rdf="http://www.w3.org/1999/02/22-rdf-syntax-ns#"
   xmlns:svg="http://www.w3.org/2000/svg"
   xmlns="http://www.w3.org/2000/svg"
   xmlns:sodipodi="http://sodipodi.sourceforge.net/DTD/sodipodi-0.dtd"
   xmlns:inkscape="http://www.inkscape.org/namespaces/inkscape"
   width="284.639"
   height="93.64"
   viewBox="0 0 284.639 93.64"
   version="1.1"
   id="svg10"
   sodipodi:docname="stroke5.svg"
   inkscape:version="0.92.5 (2060ec1f9f, 2020-04-08)">
  <metadata
     id="metadata16">
    <rdf:RDF>
      <cc:Work
         rdf:about="">
        <dc:format>image/svg+xml</dc:format>
        <dc:type
           rdf:resource="http://purl.org/dc/dcmitype/StillImage" />
        <dc:title />
      </cc:Work>
    </rdf:RDF>
  </metadata>
  <defs
     id="defs14" />
  <sodipodi:namedview
     pagecolor="#ffffff"
     bordercolor="#666666"
     borderopacity="1"
     objecttolerance="10"
     gridtolerance="10"
     guidetolerance="10"
     inkscape:pageopacity="0"
     inkscape:pageshadow="2"
     inkscape:window-width="1920"
     inkscape:window-height="1034"
     id="namedview12"
     showgrid="false"
     inkscape:zoom="12.560232"
     inkscape:cx="7.9051213"
     inkscape:cy="39.585157"
     inkscape:window-x="0"
     inkscape:window-y="0"
     inkscape:window-maximized="1"
     inkscape:current-layer="svg10" />
  <g
     fill-rule="evenodd"
     stroke-width="0.25mm"
     stroke-linecap="round"
     id="g4">
    <path
       d="m 28.956,38 -1.8,4.7 c -0.333333,0.666667 0.733333,0.733333 3.2,0.2 0.666667,-0.133333 1.466667,-0.333333 2.4,-0.6 0.861231,-0.230463 1.729303,-0.434559 2.603,-0.612 3.725333,-0.749333 6.601333,-0.730667 8.628,0.056 0.124542,0.04827 0.247598,0.100299 0.369,0.156 0.131499,0.06088 0.258488,0.131053 0.38,0.21 0.722,0.476667 0.735333,1.067667 0.04,1.773 -0.03914,0.03987 -0.07915,0.07888 -0.12,0.117 -0.8,0.666667 -2.733333,1.016667 -5.8,1.05 -3.066667,0.03333 -6.016667,0.516667 -8.85,1.45 -0.491282,0.161539 -0.980972,0.32788 -1.469,0.499 -1.942,0.682 -3.102333,1.199 -3.481,1.551 -0.466667,0.433333 -1.033333,2.15 -1.7,5.15 -0.18637,0.816143 -0.379043,1.630834 -0.578,2.444 -0.632,2.581333 -1.175,4.456 -1.629,5.624 -0.101037,0.266299 -0.215517,0.527301 -0.343,0.782 -0.188069,0.35456 -0.399885,0.696005 -0.634,1.022 -0.759333,1.082 -1.979667,2.499667 -3.661,4.253 -0.184193,0.192444 -0.369195,0.384112 -0.555,0.575 -3.133333,3.066667 -5.366667,4.683333 -6.7,4.85 C 8.0353333,73.402667 7.2896667,73.457333 7.019,73.414 6.997659,73.411 6.976591,73.4063 6.956,73.4 6.902625,73.31867 6.870953,73.225032 6.864,73.128 6.827333,72.701333 7.158,72.058667 7.856,71.2 c 0.8666667,-1.066667 1.7666667,-1.866667 2.7,-2.4 0.951333,-0.589333 1.995,-1.386333 3.131,-2.391 0.569719,-0.505149 1.126239,-1.024991 1.669,-1.559 1.8,-1.766667 2.966667,-3.25 3.5,-4.45 0.166555,-0.340464 0.31216,-0.690783 0.436,-1.049 0.277333,-0.784667 0.545,-1.772667 0.803,-2.964 0.09266,-0.427834 0.179664,-0.856871 0.261,-1.287 0.06084,-0.321423 0.11851,-0.643439 0.173,-0.966 0.31,-1.836667 0.355,-2.878333 0.135,-3.125 -0.0026,-0.0031 -0.0053,-0.0061 -0.008,-0.009 -0.02168,-0.01896 -0.04846,-0.03113 -0.077,-0.035 -0.327333,-0.06667 -1.466,0.303333 -3.416,1.11 -0.336548,0.139569 -0.672221,0.281239 -1.007,0.425 -2.866667,1.266667 -5.183333,2.05 -6.95,2.35 C 7.5233333,55.136 5.7953333,55.074 4.022,54.664 3.9331441,54.643461 3.8444739,54.622127 3.756,54.6 2.8226667,54.333333 2.0893333,54.133333 1.556,54 1.0226667,53.866667 0.62266667,53.7 0.356,53.5 0.30474551,53.462129 0.25566759,53.421398 0.209,53.378 0.06966667,53.246667 0,53.122667 0,53.006 1.526871e-4,52.98718 0.00216243,52.96842 0.006,52.95 0.01610045,52.90126 0.02912397,52.85317 0.045,52.806 0.09566667,52.653333 0.185,52.446667 0.313,52.186 0.3272231,52.15728 0.3415566,52.12861 0.356,52.1 0.58866667,51.867333 2.6536667,51.061667 6.551,49.683 7.1522054,49.470687 7.7538735,49.259687 8.356,49.05 c 4.324,-1.508 7.92,-2.688 10.788,-3.54 0.469743,-0.139829 0.94042,-0.276498 1.412,-0.41 0.323415,-0.06356 0.644029,-0.14063 0.961,-0.231 1.082,-0.312667 1.728333,-0.719 1.939,-1.219 0.266667,-0.633333 0.666667,-2.3 1.2,-5 0.512667,-2.596 0.717,-4.036333 0.613,-4.321 -0.0032,-0.01015 -0.0075,-0.01988 -0.013,-0.029 -0.03498,-0.01642 -0.07196,-0.02819 -0.11,-0.035 -0.318,-0.06333 -1.042,0.0087 -2.172,0.216 -0.206311,0.03804 -0.412317,0.0777 -0.618,0.119 -0.717388,0.160129 -1.437496,0.307818 -2.16,0.443 -4.157333,0.773333 -6.837333,0.759 -8.04,-0.043 -0.150262,-0.09178 -0.297665,-0.188156 -0.442,-0.289 -0.453333,-0.319333 -0.727,-0.597 -0.821,-0.833 -0.02358,-0.05643 -0.03614,-0.116849 -0.037,-0.178 0,-0.300667 0.786333,-0.669 2.359,-1.105 0.179908,-0.04991 0.360248,-0.09824 0.541,-0.145 0.565169,-0.147553 1.128543,-0.301898 1.69,-0.463 1.996,-0.568667 4.816,-1.431 8.46,-2.587 0.977938,-0.31025 1.956272,-0.619251 2.935,-0.927 3.212,-1.01 5.417,-1.684333 6.615,-2.023 0.310069,-0.08796 0.621793,-0.16997 0.935,-0.246 1.004,-0.242667 1.766667,-0.346 2.288,-0.31 0.0257,0.0016 0.05137,0.0036 0.077,0.006 0.371417,0.0693 0.741484,0.145643 1.11,0.229 1.145333,0.26 1.952,0.533667 2.42,0.821 0.117402,0.0686 0.225036,0.152684 0.32,0.25 0.433333,0.466667 0.183333,1.2 -0.75,2.2 -0.238946,0.271646 -0.516992,0.506216 -0.825,0.696 -0.614,0.393333 -1.447,0.748667 -2.499,1.066 -0.487529,0.145779 -0.979805,0.275185 -1.476,0.388 -0.42656,0.09719 -0.851299,0.202205 -1.274,0.315 -1.674,0.450667 -2.632667,0.879 -2.876,1.285 -0.07501,0.129627 -0.143757,0.26278 -0.206,0.399 -0.350667,0.746667 -0.932,2.230333 -1.744,4.451 z"
       id="path2"
       inkscape:connector-curvature="0"
       style="vector-effect:non-scaling-stroke"
       sodipodi:nodetypes="ccccccccccscccccccccccccccccccccccccccccccscccccccccccccccccccccccccccccccccccccccccccc" />
  </g>
  <mask
     id="mask8">
    <path
       stroke-width="6.79332638"
       stroke="red"
       d="M 6.1692973,10.823997 21.256,19.9 v 0"
       stroke-dashoffset="0"
       id="path6" />
  </mask>
  <path
     style="fill:none;stroke:#ffff00;stroke-width:6.3;stroke-linecap:butt;stroke-linejoin:miter;stroke-opacity:1;stroke-miterlimit:4;stroke-dasharray:none"
     d="M 28.263809,31.061537 21.177953,58.051485 18.869078,63.306165 6.956,73.4"
     id="path819"
     inkscape:connector-curvature="0" />
</svg>
