<?xml version="1.0" encoding="UTF-8" standalone="no"?>
<svg
   xmlns:dc="http://purl.org/dc/elements/1.1/"
   xmlns:cc="http://creativecommons.org/ns#"
   xmlns:rdf="http://www.w3.org/1999/02/22-rdf-syntax-ns#"
   xmlns:svg="http://www.w3.org/2000/svg"
   xmlns="http://www.w3.org/2000/svg"
   xmlns:sodipodi="http://sodipodi.sourceforge.net/DTD/sodipodi-0.dtd"
   xmlns:inkscape="http://www.inkscape.org/namespaces/inkscape"
   width="284.639"
   height="93.64"
   viewBox="0 0 284.639 93.64"
   version="1.1"
   id="svg10"
   sodipodi:docname="stroke6.svg"
   inkscape:version="0.92.5 (2060ec1f9f, 2020-04-08)">
  <metadata
     id="metadata16">
    <rdf:RDF>
      <cc:Work
         rdf:about="">
        <dc:format>image/svg+xml</dc:format>
        <dc:type
           rdf:resource="http://purl.org/dc/dcmitype/StillImage" />
        <dc:title />
      </cc:Work>
    </rdf:RDF>
  </metadata>
  <defs
     id="defs14" />
  <sodipodi:namedview
     pagecolor="#ffffff"
     bordercolor="#666666"
     borderopacity="1"
     objecttolerance="10"
     gridtolerance="10"
     guidetolerance="10"
     inkscape:pageopacity="0"
     inkscape:pageshadow="2"
     inkscape:window-width="1920"
     inkscape:window-height="1034"
     id="namedview12"
     showgrid="false"
     inkscape:zoom="12.560232"
     inkscape:cx="33.382358"
     inkscape:cy="26.846539"
     inkscape:window-x="0"
     inkscape:window-y="0"
     inkscape:window-maximized="1"
     inkscape:current-layer="svg10" />
  <g
     fill-rule="evenodd"
     stroke-width="0.25mm"
     stroke-linecap="round"
     id="g4">
    <path
       d="m 35.506,58.3 c -0.367952,-0.231973 -0.743845,-0.451105 -1.127,-0.657 -1.648,-0.879333 -2.855667,-1.127 -3.623,-0.743 -0.266667,0.2 -0.35,0.55 -0.25,1.05 0.02703,0.127395 0.05973,0.25352 0.098,0.378 0.181333,0.608 0.565333,1.632 1.152,3.072 1.485333,3.402 2.953333,5.753667 4.404,7.055 0.487954,0.460608 1.065175,0.816266 1.696,1.045 0.637333,0.15 1.201,0.342333 1.691,0.577 0.358985,0.16852 0.697518,0.377545 1.009,0.623 0.07022,0.07056 0.142937,0.138607 0.218,0.204 0.187333,0.162667 0.358,0.275 0.512,0.337 0.08535,0.03689 0.177037,0.05693 0.27,0.059 0.266667,0 0.766667,-0.233333 1.5,-0.7 0.07464,-0.03914 0.148651,-0.07948 0.222,-0.121 1.13,-0.638667 1.695,-1.351333 1.695,-2.138 4.3e-5,-0.08063 -0.0056,-0.16117 -0.017,-0.241 -0.133333,-0.933333 -1.033333,-2.333333 -2.7,-4.2 -2.266667,-2.333333 -4.516667,-4.2 -6.75,-5.6 z"
       id="path2"
       inkscape:connector-curvature="0"
       style="vector-effect:non-scaling-stroke"
       sodipodi:nodetypes="ccccccccccccccccccc" />
  </g>
  <mask
     id="mask8">
    <path
       stroke-width="6.79332638"
       stroke="red"
       d="M 6.1692973,10.823997 21.256,19.9 v 0"
       stroke-dashoffset="0"
       id="path6" />
  </mask>
  <path
     style="fill:none;stroke:#ffff00;stroke-width:9.8;stroke-linecap:butt;stroke-linejoin:miter;stroke-opacity:1;stroke-miterlimit:4;stroke-dasharray:none"
     d="M 30.756,56.9 44.425931,69.914323"
     id="path815"
     inkscape:connector-curvature="0" />
</svg>
