<?xml version="1.0" encoding="UTF-8" standalone="no"?>
<svg
   xmlns:dc="http://purl.org/dc/elements/1.1/"
   xmlns:cc="http://creativecommons.org/ns#"
   xmlns:rdf="http://www.w3.org/1999/02/22-rdf-syntax-ns#"
   xmlns:svg="http://www.w3.org/2000/svg"
   xmlns="http://www.w3.org/2000/svg"
   xmlns:sodipodi="http://sodipodi.sourceforge.net/DTD/sodipodi-0.dtd"
   xmlns:inkscape="http://www.inkscape.org/namespaces/inkscape"
   width="284.639"
   height="93.64"
   viewBox="0 0 284.639 93.64"
   version="1.1"
   id="svg10"
   sodipodi:docname="stroke2.svg"
   inkscape:version="0.92.5 (2060ec1f9f, 2020-04-08)">
  <metadata
     id="metadata16">
    <rdf:RDF>
      <cc:Work
         rdf:about="">
        <dc:format>image/svg+xml</dc:format>
        <dc:type
           rdf:resource="http://purl.org/dc/dcmitype/StillImage" />
        <dc:title />
      </cc:Work>
    </rdf:RDF>
  </metadata>
  <defs
     id="defs14" />
  <sodipodi:namedview
     pagecolor="#ffffff"
     bordercolor="#666666"
     borderopacity="1"
     objecttolerance="10"
     gridtolerance="10"
     guidetolerance="10"
     inkscape:pageopacity="0"
     inkscape:pageshadow="2"
     inkscape:window-width="1920"
     inkscape:window-height="1034"
     id="namedview12"
     showgrid="false"
     inkscape:zoom="8.881425"
     inkscape:cx="38.543226"
     inkscape:cy="68.001265"
     inkscape:window-x="0"
     inkscape:window-y="0"
     inkscape:window-maximized="1"
     inkscape:current-layer="svg10" />
  <g
     fill-rule="evenodd"
     stroke-width="0.25mm"
     stroke-linecap="round"
     id="g4">
    <path
       d="m 39.256,2.7 2,-2.7 2.2,0.7 c 1.4,0.4666667 2.683333,1.1666667 3.85,2.1 0.94,0.752 1.501333,1.4606667 1.684,2.126 0.04318,0.1543212 0.06538,0.3137537 0.066,0.474 0,0.454 -0.741667,1.476 -2.225,3.066 -0.04158,0.044747 -0.08325,0.089414 -0.125,0.134 -0.273247,0.2912378 -0.551285,0.5779435 -0.834,0.86 -0.889333,0.885333 -1.596333,1.474 -2.121,1.766 -0.125123,0.07185 -0.257535,0.130174 -0.395,0.174 -0.199104,0.0639 -0.388528,0.154739 -0.563,0.27 -0.886667,0.548 -2.365667,1.858 -4.437,3.93 -6.320667,6.127333 -9.896,9.290667 -10.726,9.49 -0.0242,0.0062 -0.04903,0.0095 -0.074,0.01 -0.136831,0.005 -0.272614,-0.02565 -0.394,-0.089 -0.565333,-0.320667 -0.360667,-1.505 0.614,-3.553 0.154152,-0.32223 0.314179,-0.641617 0.48,-0.958 0.330413,-0.742518 0.681213,-1.475796 1.052,-2.199 0.736667,-1.428667 1.458333,-2.594333 2.165,-3.497 0.02749,-0.03481 0.05515,-0.06948 0.083,-0.104 0.273347,-0.297731 0.534237,-0.606663 0.782,-0.926 0.544,-0.694 1.153667,-1.564667 1.829,-2.612 0.216075,-0.335382 0.429084,-0.672729 0.639,-1.012 C 36.066,8.114 36.840667,6.783 37.13,6.157 37.1388,6.138063 37.14747,6.119062 37.156,6.1 37.21262,5.9387881 37.280448,5.7817376 37.359,5.63 37.685667,4.9786667 38.318,4.002 39.256,2.7 Z"
       id="path2"
       inkscape:connector-curvature="0"
       style="vector-effect:non-scaling-stroke"
       sodipodi:nodetypes="cccscccccccccccccccccccccccc" />
  </g>
  <mask
     id="mask8">
    <path
       stroke-width="6.79332638"
       stroke="red"
       d="M 6.1692973,10.823997 21.256,19.9 v 0"
       stroke-dashoffset="0"
       id="path6" />
  </mask>
  <path
     style="fill:none;stroke:#ffff00;stroke-width:10.7037859;stroke-linecap:butt;stroke-linejoin:miter;stroke-miterlimit:4;stroke-dasharray:none;stroke-opacity:1"
     d="M 46.095699,1.7551785 27.203349,25.190189"
     id="path815"
     inkscape:connector-curvature="0" />
</svg>
